<svg width="1113" height="757" viewBox="0 0 1113 757" fill="none" xmlns="http://www.w3.org/2000/svg">
<path d="M-2596 706.569V341.24C-2596 341.24 -2596 285.035 -2641.99 285.765C-2687.98 286.86 -2691.63 341.24 -2691.63 341.24V706.569C-2691.63 706.569 -2686.88 756.204 -2644.55 756.204C-2602.21 756.204 -2596 706.569 -2596 706.569Z" fill="white"/>
<path d="M-949.269 701.103V342.343C-949.269 342.343 -948.174 286.139 -900.364 286.139C-852.553 286.139 -849.999 342.343 -849.999 342.343V359.861C-849.999 359.861 -800.364 286.139 -425.18 286.139C-86.8584 286.139 31.0254 359.861 31.0254 359.861L79.9302 381.029L131.391 359.861C131.391 359.861 277.741 286.139 555.479 286.139C832.122 286.139 995.99 349.642 1012.41 359.861C1028.11 370.08 1112.78 413.511 1112.78 517.526V701.833C1112.78 701.833 1118.25 747.818 1063.87 747.818C1009.49 747.818 1012.41 701.833 1012.41 701.833V531.03C1012.41 531.03 1025.19 380.664 555.479 380.664C105.843 380.664 131.391 531.03 131.391 531.03V694.169C131.391 694.169 135.04 747.818 81.7554 747.818C28.4702 747.818 31.0254 694.169 31.0254 694.169V531.03C31.0254 531.03 36.4995 380.664 -425.18 380.664C-886.86 380.664 -849.999 531.03 -849.999 531.03V700.738C-849.999 700.738 -844.524 748.548 -896.714 747.818C-949.269 745.994 -949.269 700.738 -949.269 700.738V701.103Z" fill="white"/>
<path d="M-1232.15 521.176C-1232.15 681.76 -1414.26 748.183 -1776.67 748.183C-2098.57 748.183 -2320.1 704.023 -2320.1 521.176C-2320.1 352.562 -2093.83 286.139 -1779.59 286.139C-1394.19 286.139 -1232.51 362.781 -1232.51 521.176H-1232.15ZM-1775.94 381.029C-2060.25 381.029 -2215.36 417.891 -2215.36 521.176C-2215.36 617.161 -2036.16 661.322 -1775.94 661.322C-1515.72 661.322 -1336.16 615.336 -1336.16 521.176C-1336.16 427.015 -1494.19 381.029 -1775.94 381.029Z" fill="white"/>
<path d="M-2756.21 94.8868C-2756.21 42.332 -2705.84 -0.00390625 -2642.34 -0.00390625C-2578.84 -0.00390625 -2527.38 42.6969 -2527.38 94.8868C-2527.38 147.077 -2578.84 189.778 -2642.34 189.778C-2705.84 189.778 -2756.21 147.442 -2756.21 94.8868Z" fill="white"/>
<path d="M-3981.04 87.5954V285.771H-3345.64C-3345.64 285.771 -3000.75 289.421 -3000.75 506.209C-3000.75 722.998 -3345.64 747.816 -3345.64 747.816H-3981.04C-3981.04 747.816 -4078.49 760.225 -4078.49 704.02C-4078.49 647.816 -3981.04 652.195 -3981.04 652.195H-3345.64C-3345.64 652.195 -3095.64 643.801 -3095.64 506.574C-3095.64 369.348 -3345.64 382.851 -3345.64 382.851H-4078.49V87.5954C-4078.49 87.5954 -4079.58 47.0844 -4030.68 45.2596C-3981.04 44.5297 -3981.04 87.5954 -3981.04 87.5954Z" fill="white"/>
<path d="M-3981.04 87.5954V285.771H-3345.64C-3345.64 285.771 -3000.75 289.421 -3000.75 506.209C-3000.75 722.998 -3345.64 747.816 -3345.64 747.816H-3981.04C-3981.04 747.816 -4078.49 760.225 -4078.49 704.02C-4078.49 647.816 -3981.04 652.195 -3981.04 652.195H-3345.64C-3345.64 652.195 -3095.64 643.801 -3095.64 506.574C-3095.64 369.348 -3345.64 382.851 -3345.64 382.851H-4078.49V87.5954C-4078.49 87.5954 -4079.58 47.0844 -4030.68 45.2596C-3981.04 44.5297 -3981.04 87.5954 -3981.04 87.5954Z" fill="white"/>
</svg>
