<svg width="279" height="67" viewBox="0 0 279 67" fill="none" xmlns="http://www.w3.org/2000/svg">
<g clip-path="url(#clip0_4108_1398)">
<path d="M88.6026 37.0464C88.6026 35.3914 87.6937 34.2169 86.3303 33.4695L84.7263 32.562C83.3094 31.7612 82.9352 31.3875 82.9352 30.5333C82.9352 29.4655 83.6837 28.8516 84.9134 28.8516C85.4481 28.8516 85.9026 28.9584 86.5174 29.1719V30.7201C86.5174 30.907 86.5709 30.9871 86.7848 30.9871H87.961C88.1749 30.9871 88.2284 30.907 88.2284 30.7201V28.2643C88.2284 28.0775 88.1482 27.9974 88.0145 27.8906C87.3996 27.4369 86.0897 27.0898 84.8867 27.0898C82.4005 27.0898 80.8232 28.5313 80.8232 30.7735C80.8232 32.3751 81.6252 33.3094 82.8817 34.0301L84.7798 35.0711C86.2501 35.8719 86.464 36.2723 86.464 37.26C86.464 38.4345 85.7154 39.1552 84.4322 39.1552C83.8174 39.1552 83.1758 38.995 82.347 38.7014V37.0998C82.347 36.8863 82.2668 36.8062 82.053 36.8062H80.9034C80.6896 36.8062 80.6094 36.8863 80.6094 37.0998V39.7157C80.6094 40.0361 80.85 40.1428 81.0906 40.2496C82.0797 40.7034 83.3629 40.9436 84.4322 40.9436C86.9184 40.9436 88.6026 39.3687 88.6026 37.0464Z" fill="white"/>
<path d="M85.9047 55.6804H86.6265C86.6265 55.6804 86.7869 55.6271 86.7869 55.5203V54.9864C86.7869 54.9864 86.7334 54.8263 86.6265 54.8263H83.8195C83.6591 54.8263 83.6323 54.853 83.6323 55.0131V55.4936C83.6323 55.6538 83.6323 55.6804 83.8195 55.6804H84.8353V58.4032C84.3541 58.6167 84.167 58.6434 83.8195 58.6434C82.2957 58.6434 81.6541 57.4956 81.6541 54.7729C81.6541 53.2247 81.8679 52.3171 82.3491 51.7032C82.6432 51.3294 83.1244 51.1159 83.6323 51.1159C84.0333 51.1159 84.4076 51.2227 84.8353 51.4629V52.6107C84.8353 52.6107 84.8888 52.7709 84.9957 52.7709H85.5839C85.5839 52.7709 85.7443 52.7175 85.7443 52.6107V51.1426C85.7443 51.1426 85.7443 50.9557 85.6106 50.8757C85.1027 50.502 84.3007 50.2617 83.6323 50.2617C81.6541 50.2617 80.5312 51.9434 80.5312 54.933C80.5312 57.9227 81.6273 59.5243 83.659 59.5243C84.4343 59.5243 85.3165 59.3107 85.8245 59.0171C85.9047 58.9637 85.9314 58.937 85.9314 58.8302V55.7071L85.9047 55.6804Z" fill="white"/>
<path fill-rule="evenodd" clip-rule="evenodd" d="M93.1993 56.4532C93.1993 56.4532 93.333 56.3998 93.333 56.213C93.333 55.3855 93.2795 54.905 93.1459 54.4779C92.7983 53.4902 92.0231 52.9297 90.9805 52.9297C89.4299 52.9297 88.4141 54.2377 88.4141 56.2396C88.4141 58.2416 89.4567 59.5229 91.1141 59.5229C91.6488 59.5229 92.2102 59.3894 92.7181 59.1492C93.0657 58.989 93.1993 58.8823 93.1993 58.7755C93.1993 58.7755 93.1904 58.7488 93.1726 58.6954L92.932 58.1883C92.932 58.1883 92.8785 58.1349 92.8518 58.1349C92.7983 58.1349 92.7716 58.1349 92.7181 58.1616C92.1567 58.4819 91.6755 58.6153 91.2211 58.6153C90.1785 58.6153 89.5636 57.8412 89.5101 56.4265H93.2261L93.1993 56.4532ZM89.4834 55.6524C89.5636 54.3978 90.0448 53.7305 90.927 53.7305C91.8092 53.7305 92.2904 54.4245 92.3171 55.6524H89.4834Z" fill="white"/>
<path d="M96.9705 58.534V54.877C97.6121 54.1296 97.9061 53.8893 98.2002 53.8893C98.2804 53.8893 98.3606 53.916 98.6012 53.9694C98.6012 53.9694 98.6279 53.9694 98.6547 53.9694C98.6814 53.9694 98.7081 53.9694 98.7081 53.916L99.0289 53.1953C99.0289 53.1953 99.0289 53.1152 99.0289 53.0885C99.0289 53.0085 98.6547 52.875 98.3873 52.875C98.0398 52.875 97.6655 53.0619 97.3447 53.3822C97.211 53.5156 97.1309 53.5957 96.8368 53.9427C96.7299 53.3822 96.5427 53.0352 96.3289 53.0352H95.1526C95.1526 53.0352 94.9922 53.0885 94.9922 53.1953V53.7025C94.9922 53.7025 95.0456 53.8627 95.1526 53.8627H95.8477C95.9546 54.2364 95.9813 54.4232 95.9813 55.2507V58.5073H95.2328C95.2328 58.5073 95.0991 58.5607 95.0991 58.6674V59.1479C95.0991 59.1479 95.1526 59.3081 95.2328 59.3081H97.7724C97.7724 59.3081 97.9329 59.2547 97.9329 59.1479V58.6407C97.9329 58.6407 97.8794 58.4806 97.7724 58.4806H96.9437L96.9705 58.534Z" fill="white"/>
<path d="M108.974 54.7722C108.974 54.1582 108.921 53.8112 108.76 53.5176C108.546 53.1706 108.119 52.957 107.584 52.957C106.969 52.957 106.488 53.1439 105.686 53.7311C105.472 53.224 105.071 52.957 104.429 52.957C103.788 52.957 103.28 53.1706 102.611 53.7311C102.451 53.224 102.398 53.1439 102.237 53.1439H100.981C100.981 53.1439 100.82 53.1973 100.82 53.304V53.8112C100.82 53.8112 100.874 53.9714 100.981 53.9714H101.703C101.783 54.2116 101.809 54.3184 101.809 54.5853V58.5893H101.088C101.088 58.5893 100.927 58.6427 100.927 58.7495V59.2299C100.927 59.2299 100.981 59.3901 101.088 59.3901H103.52C103.52 59.3901 103.681 59.3367 103.681 59.2299V58.7228C103.681 58.7228 103.627 58.5626 103.52 58.5626H102.772V54.3718C103.333 53.9447 103.681 53.8112 104.082 53.8112C104.643 53.8112 104.911 54.1315 104.911 54.7722V59.2299C104.911 59.2299 104.937 59.3901 105.044 59.3901H106.595C106.595 59.3901 106.755 59.3367 106.755 59.2299V58.7228C106.755 58.7228 106.702 58.5626 106.595 58.5626H105.873V54.3184C106.461 53.918 106.782 53.8112 107.183 53.8112C107.744 53.8112 108.012 54.1048 108.012 54.7722V59.2299C108.012 59.2299 108.012 59.3901 108.145 59.3901H109.696C109.696 59.3901 109.856 59.3367 109.856 59.2299V58.7228C109.856 58.7228 109.803 58.5626 109.696 58.5626H108.974V54.7722Z" fill="white"/>
<path fill-rule="evenodd" clip-rule="evenodd" d="M116.138 58.5359C116.005 58.1355 115.978 57.922 115.978 57.2279V54.7722C115.978 53.5443 115.336 52.957 114 52.957C113.144 52.957 111.968 53.304 111.968 53.5443V53.6511L112.182 54.1582C112.182 54.1849 112.235 54.2116 112.262 54.2116C112.262 54.2116 112.316 54.2116 112.342 54.1849C112.93 53.918 113.358 53.8112 113.839 53.8112C114.695 53.8112 115.016 54.1315 115.016 54.959V55.3861C112.717 55.4128 111.594 56.1602 111.594 57.655C111.594 58.7495 112.235 59.4435 113.278 59.4435C114 59.4435 114.561 59.2032 115.149 58.616C115.283 59.1232 115.417 59.31 115.657 59.31H116.753C116.753 59.31 116.914 59.2566 116.914 59.1499V58.6427C116.914 58.6427 116.86 58.4825 116.753 58.4825H116.138V58.5359ZM114.989 57.922C114.401 58.4291 113.946 58.6694 113.492 58.6694C112.957 58.6694 112.583 58.2423 112.583 57.6283C112.583 56.7208 113.385 56.267 114.989 56.267V57.9487V57.922Z" fill="white"/>
<path d="M123.866 58.5353V54.8516C123.866 54.1042 123.84 53.8639 123.653 53.5436C123.412 53.1432 122.931 52.9297 122.316 52.9297C121.594 52.9297 121.033 53.1699 120.231 53.8106C120.124 53.3034 120.017 53.1165 119.83 53.1165H118.52C118.52 53.1165 118.359 53.1699 118.359 53.2767V53.7839C118.359 53.7839 118.413 53.944 118.52 53.944H119.268C119.322 54.211 119.349 54.3711 119.349 54.7715V58.562H118.627C118.627 58.562 118.466 58.6153 118.466 58.7221V59.2026C118.466 59.2026 118.52 59.3628 118.627 59.3628H121.059C121.059 59.3628 121.22 59.3094 121.22 59.2026V58.6954C121.22 58.6954 121.166 58.5353 121.059 58.5353H120.338V54.5847C121.006 53.9974 121.434 53.7572 122.049 53.7572C122.663 53.7572 122.931 54.0775 122.931 54.8249V59.1492C122.931 59.1492 122.931 59.3094 123.064 59.3094H124.615C124.615 59.3094 124.775 59.256 124.775 59.1492V58.642C124.775 58.642 124.722 58.4819 124.615 58.4819H123.893L123.866 58.5353Z" fill="white"/>
<path d="M134.158 52.5306C134.158 52.5306 134.212 52.6908 134.319 52.6908H134.907C134.907 52.6908 135.067 52.6374 135.067 52.5306V51.0358C135.067 51.0358 135.041 50.849 134.96 50.7956C134.479 50.4753 133.624 50.2617 132.955 50.2617C131.432 50.2617 130.362 51.2227 130.362 52.584C130.362 53.1179 130.549 53.6518 130.897 54.0522C131.218 54.3992 131.592 54.6661 132.554 55.2C133.891 55.9474 134.185 56.2944 134.185 57.0952C134.185 57.9761 133.57 58.5366 132.635 58.5366C132.153 58.5366 131.672 58.4298 131.057 58.1896V57.1219C131.057 57.1219 131.004 56.9617 130.897 56.9617H130.309C130.309 56.9617 130.148 57.0151 130.148 57.1219V58.6167C130.148 58.6167 130.175 58.8036 130.229 58.8836C130.549 59.1773 131.779 59.4976 132.554 59.4976C134.185 59.4976 135.308 58.4832 135.308 56.9617C135.308 56.3211 135.094 55.7605 134.693 55.3067C134.399 54.9597 134.132 54.7996 132.768 53.9988C131.779 53.4649 131.512 53.1179 131.512 52.4506C131.512 51.6498 132.02 51.1693 132.902 51.1693C133.33 51.1693 133.731 51.2494 134.185 51.4362V52.504L134.158 52.5306Z" fill="white"/>
<path fill-rule="evenodd" clip-rule="evenodd" d="M138.674 61.1506V58.935C139.262 59.3621 139.663 59.4956 140.198 59.4956C141.535 59.4956 142.363 58.1876 142.363 56.0788C142.363 55.1713 142.203 54.3972 141.936 53.8099C141.642 53.2227 141.107 52.9023 140.358 52.9023C139.69 52.9023 139.209 53.0892 138.487 53.6764C138.3 53.1426 138.246 53.0892 138.006 53.0892H136.856C136.856 53.0892 136.723 53.1426 136.723 53.2494V53.7565C136.723 53.7565 136.749 53.9167 136.856 53.9167H137.578C137.685 54.1836 137.712 54.3972 137.712 54.9043V61.1506H136.963C136.963 61.1506 136.803 61.2039 136.803 61.3107V61.7912C136.803 61.7912 136.856 61.9513 136.963 61.9513H139.503C139.503 61.9513 139.663 61.898 139.663 61.7912V61.284C139.663 61.284 139.61 61.1239 139.503 61.1239H138.674V61.1506ZM138.674 54.4506C139.369 53.9701 139.744 53.8099 140.171 53.8099C140.599 53.8099 140.947 54.0768 141.107 54.4772C141.241 54.851 141.294 55.3581 141.294 56.1322C141.294 57.9474 140.947 58.6414 140.064 58.6414C139.61 58.6414 139.262 58.5079 138.647 58.1075V54.4506H138.674Z" fill="white"/>
<path fill-rule="evenodd" clip-rule="evenodd" d="M146.908 52.929C145.224 52.929 144.234 54.1569 144.234 56.239C144.234 58.3211 145.143 59.4956 146.747 59.4956C148.432 59.4956 149.421 58.2677 149.421 56.1589C149.421 54.0502 148.485 52.9023 146.908 52.9023M146.801 53.7565C147.817 53.7565 148.351 54.584 148.351 56.1856C148.351 57.0131 148.191 57.7605 147.924 58.1609C147.71 58.5079 147.282 58.6948 146.828 58.6948C146.373 58.6948 145.919 58.4812 145.678 58.1342C145.437 57.7071 145.277 56.9597 145.277 56.1322C145.277 54.584 145.812 53.7565 146.801 53.7565Z" fill="white"/>
<path d="M153.033 58.534V54.877C153.675 54.1296 153.969 53.8893 154.263 53.8893C154.343 53.8893 154.423 53.916 154.664 53.9694C154.664 53.9694 154.69 53.9694 154.717 53.9694C154.744 53.9694 154.744 53.9694 154.771 53.916L155.091 53.1953C155.091 53.1953 155.091 53.1152 155.091 53.0885C155.091 53.0085 154.717 52.875 154.45 52.875C154.102 52.875 153.728 53.0619 153.407 53.3822C153.274 53.5156 153.193 53.5957 152.899 53.9427C152.792 53.3822 152.605 53.0352 152.391 53.0352H151.215C151.215 53.0352 151.055 53.0885 151.055 53.1953V53.7025C151.055 53.7025 151.108 53.8627 151.215 53.8627H151.91C152.017 54.2364 152.044 54.4232 152.044 55.2507V58.5073H151.295C151.295 58.5073 151.162 58.5607 151.162 58.6674V59.1479C151.162 59.1479 151.215 59.3081 151.295 59.3081H153.835C153.835 59.3081 153.995 59.2547 153.995 59.1479V58.6407C153.995 58.6407 153.942 58.4806 153.835 58.4806H153.006L153.033 58.534Z" fill="white"/>
<path d="M157.765 53.1146H156.856C156.856 53.1146 156.695 53.1413 156.695 53.2748V53.782C156.695 53.782 156.695 53.9154 156.856 53.9154H157.765V57.5724C157.765 58.2397 157.791 58.48 157.925 58.7469C158.166 59.2007 158.7 59.4676 159.342 59.4676C159.984 59.4676 161.026 59.1473 161.026 58.9604C161.026 58.9604 161.017 58.9426 160.999 58.9071L160.866 58.3732C160.866 58.3732 160.812 58.2931 160.786 58.2931C160.786 58.2931 160.732 58.2931 160.705 58.2931C160.144 58.5334 159.85 58.6134 159.529 58.6134C159.235 58.6134 159.021 58.5334 158.887 58.3465C158.781 58.1863 158.754 58.0796 158.754 57.5457V53.8887H160.491C160.491 53.8887 160.652 53.862 160.679 53.7553L160.812 53.2481C160.812 53.2481 160.812 53.1947 160.812 53.168C160.812 53.1146 160.759 53.0879 160.705 53.0879H158.754V51.0859C158.754 51.0859 158.754 50.9258 158.674 50.9258C158.674 50.9258 158.647 50.9347 158.593 50.9525L157.925 51.1393C157.925 51.1393 157.791 51.2194 157.791 51.2995V53.0879L157.765 53.1146Z" fill="white"/>
<path fill-rule="evenodd" clip-rule="evenodd" d="M99.8294 35.7644C99.8294 32.5612 98.7601 30.9062 96.6215 30.9062C95.6858 30.9062 95.0175 31.1999 93.9481 31.974C93.761 31.4935 93.7343 31.2266 93.36 31.2266H91.0876C90.9005 31.2266 90.8203 31.28 90.8203 31.4668V32.4812C90.8203 32.668 90.9005 32.7214 91.0876 32.7214H92.0768C92.2639 33.2819 92.2639 33.6023 92.2639 34.1895V43.1051H91.2213C91.0342 43.1051 90.9807 43.1584 90.9807 43.3453V44.3329C90.9807 44.5198 91.0342 44.5999 91.2213 44.5999H95.4184C95.6056 44.5999 95.659 44.5198 95.659 44.3329V43.3453C95.659 43.1584 95.6323 43.1051 95.4184 43.1051H94.2689V40.2756C95.0442 40.7827 95.6056 40.9429 96.4076 40.9429C98.6264 40.9429 99.8294 39.1011 99.8294 35.7377M97.7977 35.8445C97.7977 38.4604 97.3432 39.3947 96.0066 39.3947C95.4184 39.3947 94.9907 39.2612 94.2689 38.8074V33.3887C95.0976 32.7748 95.5521 32.5345 96.167 32.5345C97.3432 32.5345 97.7977 33.4955 97.7977 35.8445Z" fill="white"/>
<path fill-rule="evenodd" clip-rule="evenodd" d="M110.338 35.9513C110.338 32.7748 108.868 30.9062 106.355 30.9062C103.842 30.9062 102.211 32.8015 102.211 35.978C102.211 39.1545 103.681 40.9963 106.221 40.9963C108.787 40.9963 110.338 39.1011 110.338 35.9513ZM108.253 35.8979C108.253 38.3003 107.638 39.4214 106.301 39.4214C104.964 39.4214 104.323 38.3003 104.323 35.8979C104.323 33.4955 104.964 32.5078 106.301 32.5078C107.638 32.5078 108.253 33.5756 108.253 35.8979Z" fill="white"/>
<path d="M119.054 31.4668C119.108 31.3066 119.134 31.2266 118.947 31.1465C118.707 31.013 118.359 30.9062 118.038 30.9062C116.916 30.9062 116.301 31.707 115.659 32.4812C115.445 31.5202 115.258 31.2266 114.911 31.2266H112.772C112.585 31.2266 112.531 31.28 112.531 31.4935V32.5078C112.531 32.6947 112.585 32.7748 112.772 32.7748H113.761C113.921 33.3353 113.948 33.6557 113.948 34.6166V39.2345H112.879C112.692 39.2345 112.638 39.2879 112.638 39.4748V40.5158C112.638 40.7027 112.692 40.7561 112.879 40.7561H117.076C117.263 40.7561 117.317 40.7027 117.317 40.5158V39.4748C117.317 39.2879 117.236 39.2345 117.076 39.2345H115.953V34.0027C116.728 33.0951 117.183 32.8015 117.611 32.8015C117.798 32.8015 117.985 32.8282 118.279 32.9616C118.386 32.9883 118.466 32.9616 118.493 32.8549L119.027 31.5202L119.054 31.4668Z" fill="white"/>
<path d="M127.688 40.0614L127.447 39.047C127.421 38.8602 127.34 38.7267 127.046 38.8602C126.538 39.0737 126.137 39.2606 125.576 39.2606C124.801 39.2606 124.614 38.9936 124.614 37.8458V32.7207H126.886C127.073 32.7207 127.153 32.6673 127.207 32.4805L127.447 31.5462C127.501 31.3327 127.527 31.2259 127.233 31.2259H124.64V28.343C124.64 28.0227 124.507 28.0761 124.239 28.1028L122.929 28.343C122.742 28.3697 122.662 28.4498 122.662 28.6367V31.1992H121.299C121.058 31.1992 121.031 31.2259 121.031 31.4661V32.4271C121.031 32.6673 121.031 32.694 121.299 32.694H122.662V37.9793C122.662 39.741 123.116 40.9155 125.175 40.9155C125.923 40.9155 126.779 40.7554 127.501 40.4351C127.768 40.3283 127.768 40.2482 127.688 40.0347" fill="white"/>
<path d="M139.773 40.4625V39.4215C139.773 39.2346 139.693 39.1812 139.532 39.1812H138.49V33.896C138.49 32.1609 138.062 30.9063 136.004 30.9063C134.934 30.9063 134.079 31.28 133.17 32.1342V26.9824C133.17 26.7956 133.116 26.7422 132.929 26.7422H130.069C129.882 26.7422 129.828 26.7956 129.828 26.9824V28.0235C129.828 28.2103 129.855 28.2637 130.069 28.2637H131.192V39.2079H130.149C129.962 39.2079 129.908 39.2613 129.908 39.4482V40.4892C129.908 40.676 129.962 40.7294 130.149 40.7294H134.239C134.426 40.7294 134.48 40.676 134.48 40.4892V39.4482C134.48 39.2613 134.426 39.2079 134.239 39.2079H133.17V33.5757C134.052 32.8282 134.613 32.5346 135.282 32.5346C136.191 32.5346 136.485 32.9884 136.485 34.1896V40.4091C136.485 40.6494 136.538 40.6761 136.779 40.6761H139.532C139.719 40.6761 139.773 40.6227 139.773 40.4358" fill="white"/>
<path fill-rule="evenodd" clip-rule="evenodd" d="M149.877 35.9513C149.877 32.7748 148.407 30.9062 145.894 30.9062C143.381 30.9062 141.75 32.8015 141.75 35.978C141.75 39.1545 143.22 40.9963 145.76 40.9963C148.326 40.9963 149.877 39.1011 149.877 35.9513ZM147.765 35.8979C147.765 38.3003 147.15 39.4214 145.813 39.4214C144.477 39.4214 143.835 38.3003 143.835 35.8979C143.835 33.4955 144.477 32.5078 145.813 32.5078C147.15 32.5078 147.765 33.5756 147.765 35.8979Z" fill="white"/>
<path d="M159.098 39.9019L158.671 38.8608C158.617 38.7007 158.537 38.7274 158.376 38.8074C157.708 39.1812 157.067 39.3413 156.478 39.3413C155.008 39.3413 154.366 38.3003 154.366 35.978C154.366 33.6557 155.062 32.5345 156.532 32.5345C156.826 32.5345 157.067 32.6146 157.468 32.7748V34.0561C157.468 34.2429 157.521 34.2963 157.708 34.2963H158.884C159.072 34.2963 159.125 34.2429 159.125 34.0561V31.8939C159.125 31.707 159.098 31.627 158.938 31.5202C158.403 31.1465 157.494 30.9062 156.532 30.9062C153.912 30.9062 152.281 32.9082 152.281 36.1648C152.281 39.2345 153.752 40.9963 156.265 40.9963C157.227 40.9963 158.189 40.7827 158.991 40.329C159.178 40.2222 159.178 40.1154 159.098 39.9286" fill="white"/>
<path d="M171.421 40.4625V39.4215C171.421 39.2346 171.341 39.1812 171.181 39.1812H170.138V33.896C170.138 32.1609 169.71 30.9063 167.652 30.9063C166.583 30.9063 165.727 31.28 164.818 32.1342V26.9824C164.818 26.7956 164.765 26.7422 164.578 26.7422H161.717C161.53 26.7422 161.477 26.7956 161.477 26.9824V28.0235C161.477 28.2103 161.503 28.2637 161.717 28.2637H162.84V39.2079H161.797C161.61 39.2079 161.557 39.2613 161.557 39.4482V40.4892C161.557 40.676 161.61 40.7294 161.797 40.7294H165.888C166.075 40.7294 166.128 40.676 166.128 40.4892V39.4482C166.128 39.2613 166.075 39.2079 165.888 39.2079H164.818V33.5757C165.7 32.8282 166.262 32.5346 166.93 32.5346C167.839 32.5346 168.133 32.9884 168.133 34.1896V40.4091C168.133 40.6494 168.187 40.6761 168.427 40.6761H171.181C171.368 40.6761 171.421 40.6227 171.421 40.4358" fill="white"/>
<path fill-rule="evenodd" clip-rule="evenodd" d="M90.4481 14.4611C90.4481 12.3523 90.154 10.03 88.3896 8.69533C87.6144 8.08138 86.8658 7.89453 84.9678 7.89453H80.7706C80.53 7.89453 80.4766 7.94792 80.4766 8.21485V9.17581C80.4766 9.41605 80.5033 9.49612 80.7706 9.49612H81.8934V19.7196H80.7706C80.53 19.7196 80.4766 19.773 80.4766 20.0399V21.0009C80.4766 21.2411 80.5033 21.2945 80.7706 21.2945H85.048C89.1382 21.2945 90.4481 18.8121 90.4481 14.5145M88.2292 14.4878C88.2292 18.1714 87.3738 19.5061 84.9945 19.5061H84.0321V9.6029H84.941C85.743 9.6029 86.144 9.65628 86.5718 9.84314C87.7748 10.3236 88.256 11.7384 88.256 14.4878" fill="white"/>
<path fill-rule="evenodd" clip-rule="evenodd" d="M101.115 16.2807C101.115 13.1576 99.7787 11.4492 97.3994 11.4492C95.0201 11.4492 93.3359 13.4779 93.3359 16.5476C93.3359 19.6173 94.8865 21.5393 97.5331 21.5393C98.549 21.5393 99.8054 21.2189 100.581 20.7385C100.821 20.605 100.901 20.4982 100.795 20.258L100.367 19.297C100.313 19.1369 100.206 19.1102 100.099 19.1903C99.4846 19.4572 98.8698 19.8843 97.7202 19.8843C96.2231 19.8843 95.4479 18.8966 95.3677 17.0014H100.795C101.115 17.0014 101.115 16.7345 101.115 16.2807ZM99.0301 15.5066H95.3944C95.5281 13.7448 96.1162 12.9707 97.2925 12.9707C98.4688 12.9707 98.9767 13.7982 99.0301 15.5066Z" fill="white"/>
<path d="M113.251 21.0008V19.9598C113.251 19.7729 113.171 19.7196 113.011 19.7196H112.048C111.915 19.2391 111.861 18.8921 111.861 18.2247V12.0052C111.861 11.7917 111.808 11.7383 111.594 11.7383H108.787C108.6 11.7383 108.546 11.8184 108.546 11.9785V12.9929C108.546 13.1797 108.6 13.2331 108.787 13.2331H109.91V18.9988C109.268 19.5594 108.573 19.853 107.905 19.853C106.942 19.853 106.648 19.3725 106.648 17.7709V12.0052C106.648 11.7917 106.595 11.7383 106.381 11.7383H103.627C103.44 11.7383 103.387 11.7917 103.387 11.9785V12.9929C103.387 13.1797 103.44 13.2331 103.627 13.2331H104.67V18.3582C104.67 19.3192 104.75 20.2267 105.525 20.8941C105.98 21.2678 106.621 21.4813 107.423 21.4813C108.52 21.4813 109.215 21.1877 110.23 20.3335C110.418 21.0542 110.551 21.1877 110.872 21.1877H113.037C113.225 21.1877 113.305 21.1343 113.305 20.9474" fill="white"/>
<path d="M121.672 20.6004L121.432 19.5861C121.405 19.3992 121.325 19.2658 121.031 19.3992C120.523 19.6128 120.122 19.7996 119.56 19.7996C118.785 19.7996 118.598 19.5327 118.598 18.3849V13.2598H120.87C121.057 13.2598 121.138 13.2064 121.191 13.0195L121.432 12.0853C121.485 11.8717 121.512 11.765 121.218 11.765H118.625V8.88209C118.625 8.56178 118.491 8.61516 118.224 8.64186L116.914 8.88209C116.727 8.90879 116.646 8.98887 116.646 9.17572V11.7383H115.283C115.042 11.7383 115.016 11.765 115.016 12.0052V12.9662C115.016 13.2064 115.016 13.2331 115.283 13.2331H116.646V18.5183C116.646 20.2801 117.101 21.4546 119.159 21.4546C119.908 21.4546 120.763 21.2944 121.485 20.9741C121.752 20.8674 121.752 20.7873 121.672 20.5737" fill="white"/>
<path d="M130.6 18.5763C130.6 17.6687 130.306 16.948 129.343 16.4409L127.445 15.4532C126.563 14.9994 126.242 14.7325 126.242 14.1452C126.242 13.4245 126.723 12.9974 127.605 12.9974C127.926 12.9974 128.14 13.0508 128.648 13.1843V14.1986C128.648 14.3855 128.702 14.4389 128.889 14.4389H129.958C130.145 14.4389 130.199 14.3855 130.199 14.1986V12.3301C130.199 12.1966 130.118 12.0899 129.958 12.0098C129.423 11.6895 128.488 11.4492 127.605 11.4492C125.707 11.4492 124.371 12.6771 124.371 14.3855C124.371 15.1062 124.638 15.7201 125.119 16.2006C125.574 16.6277 125.948 16.8146 127.338 17.4018C128.461 17.8823 128.728 18.1492 128.728 18.7365C128.728 19.4839 128.194 19.9377 127.338 19.9377C126.857 19.9377 126.509 19.8576 125.761 19.6173V18.5496C125.761 18.3094 125.734 18.256 125.52 18.256H124.451C124.264 18.256 124.184 18.3361 124.184 18.4962V20.4715C124.184 20.6317 124.21 20.6851 124.371 20.7652C125.199 21.1922 126.456 21.5126 127.418 21.5126C129.343 21.5126 130.626 20.3381 130.626 18.5763" fill="white"/>
<path d="M140.067 20.4448L139.639 19.4038C139.586 19.2436 139.506 19.2703 139.345 19.3504C138.677 19.7241 138.035 19.8843 137.447 19.8843C135.977 19.8843 135.335 18.8432 135.335 16.5209C135.335 14.1986 136.03 13.0775 137.501 13.0775C137.795 13.0775 138.035 13.1576 138.436 13.3177V14.599C138.436 14.7859 138.49 14.8393 138.677 14.8393H139.853C140.04 14.8393 140.094 14.7859 140.094 14.599V12.4369C140.094 12.25 140.067 12.1699 139.907 12.0632C139.372 11.6895 138.463 11.4492 137.501 11.4492C134.881 11.4492 133.25 13.4512 133.25 16.7078C133.25 19.7775 134.72 21.5393 137.233 21.5393C138.196 21.5393 139.158 21.3257 139.96 20.8719C140.147 20.7652 140.147 20.6584 140.067 20.4715" fill="white"/>
<path d="M152.39 21.0055V19.9644C152.39 19.7776 152.31 19.7242 152.15 19.7242H151.107V14.4389C151.107 12.7039 150.679 11.4493 148.621 11.4493C147.551 11.4493 146.696 11.823 145.787 12.6772V7.5254C145.787 7.33854 145.734 7.28516 145.546 7.28516H142.686C142.499 7.28516 142.445 7.33854 142.445 7.5254V8.56643C142.445 8.75328 142.472 8.80667 142.686 8.80667H143.809V19.7509H142.766C142.579 19.7509 142.526 19.8043 142.526 19.9911V21.0322C142.526 21.219 142.579 21.2724 142.766 21.2724H146.856C147.043 21.2724 147.097 21.219 147.097 21.0322V19.9911C147.097 19.8043 147.043 19.7509 146.856 19.7509H145.787V14.1186C146.669 13.3712 147.231 13.0776 147.899 13.0776C148.808 13.0776 149.102 13.5314 149.102 14.7326V20.9521C149.102 21.1923 149.155 21.219 149.396 21.219H152.15C152.337 21.219 152.39 21.1656 152.39 20.9788" fill="white"/>
<path fill-rule="evenodd" clip-rule="evenodd" d="M162.545 16.2807C162.545 13.1576 161.208 11.4492 158.829 11.4492C156.45 11.4492 154.766 13.4779 154.766 16.5476C154.766 19.6173 156.316 21.5393 158.963 21.5393C159.979 21.5393 161.235 21.2189 162.01 20.7385C162.251 20.605 162.331 20.4982 162.224 20.258L161.796 19.297C161.743 19.1369 161.636 19.1102 161.529 19.1903C160.914 19.4572 160.299 19.8843 159.15 19.8843C157.653 19.8843 156.878 18.8966 156.797 17.0014H162.224C162.545 17.0014 162.545 16.7345 162.545 16.2807ZM160.46 15.5066H156.824C156.958 13.7448 157.546 12.9707 158.722 12.9707C159.898 12.9707 160.406 13.7982 160.46 15.5066Z" fill="white"/>
<path d="M180.271 38.0333C180.271 37.1258 179.977 36.4051 179.015 35.8979L177.117 34.9102C176.235 34.4564 175.914 34.1895 175.914 33.6023C175.914 32.8815 176.395 32.4545 177.277 32.4545C177.598 32.4545 177.812 32.5078 178.32 32.6413V33.6557C178.32 33.8425 178.373 33.8959 178.561 33.8959H179.63C179.817 33.8959 179.87 33.8425 179.87 33.6557V31.7871C179.87 31.6537 179.79 31.5469 179.63 31.4668C179.095 31.1465 178.16 30.9062 177.277 30.9062C175.379 30.9062 174.043 32.1341 174.043 33.8425C174.043 34.5632 174.31 35.1772 174.791 35.6576C175.246 36.0847 175.62 36.2716 177.01 36.8588C178.133 37.3393 178.4 37.6063 178.4 38.1935C178.4 38.9409 177.865 39.3947 177.01 39.3947C176.529 39.3947 176.181 39.3146 175.433 39.0744V38.0066C175.433 37.7664 175.406 37.713 175.192 37.713H174.123C173.936 37.713 173.855 37.7931 173.855 37.9533V39.9286C173.855 40.0887 173.882 40.1421 174.043 40.2222C174.871 40.6493 176.128 40.9696 177.09 40.9696C179.015 40.9696 180.298 39.7951 180.298 38.0333" fill="white"/>
<path d="M189.735 39.9019L189.307 38.8608C189.254 38.7007 189.174 38.7274 189.013 38.8074C188.345 39.1812 187.703 39.3413 187.115 39.3413C185.645 39.3413 185.003 38.3003 185.003 35.978C185.003 33.6557 185.698 32.5345 187.169 32.5345C187.463 32.5345 187.703 32.6146 188.104 32.7748V34.0561C188.104 34.2429 188.158 34.2963 188.345 34.2963H189.521C189.708 34.2963 189.762 34.2429 189.762 34.0561V31.8939C189.762 31.707 189.735 31.627 189.575 31.5202C189.04 31.1465 188.131 30.9062 187.169 30.9062C184.549 30.9062 182.918 32.9082 182.918 36.1648C182.918 39.2345 184.388 40.9963 186.901 40.9963C187.864 40.9963 188.826 40.7827 189.628 40.329C189.815 40.2222 189.815 40.1154 189.735 39.9286" fill="white"/>
<path d="M202.062 40.4625V39.4215C202.062 39.2346 201.982 39.1812 201.821 39.1812H200.779V33.896C200.779 32.1609 200.351 30.9063 198.293 30.9063C197.223 30.9063 196.368 31.28 195.459 32.1342V26.9824C195.459 26.7956 195.405 26.7422 195.218 26.7422H192.358C192.171 26.7422 192.117 26.7956 192.117 26.9824V28.0235C192.117 28.2103 192.144 28.2637 192.358 28.2637H193.481V39.2079H192.438C192.251 39.2079 192.197 39.2613 192.197 39.4482V40.4892C192.197 40.676 192.251 40.7294 192.438 40.7294H196.528C196.715 40.7294 196.769 40.676 196.769 40.4892V39.4482C196.769 39.2613 196.715 39.2079 196.528 39.2079H195.459V33.5757C196.341 32.8282 196.902 32.5346 197.571 32.5346C198.48 32.5346 198.774 32.9884 198.774 34.1896V40.4091C198.774 40.6494 198.827 40.6761 199.068 40.6761H201.821C202.009 40.6761 202.062 40.6227 202.062 40.4358" fill="white"/>
<path d="M213.583 40.4618V39.4207C213.583 39.2339 213.503 39.1805 213.343 39.1805H212.38C212.247 38.7 212.193 38.353 212.193 37.6857V31.4662C212.193 31.2526 212.14 31.1992 211.926 31.1992H209.119C208.932 31.1992 208.878 31.2793 208.878 31.4395V32.4538C208.878 32.6407 208.932 32.694 209.119 32.694H210.242V38.4598C209.6 39.0203 208.905 39.314 208.237 39.314C207.274 39.314 206.98 38.8335 206.98 37.2319V31.4662C206.98 31.2526 206.927 31.1992 206.713 31.1992H203.959C203.772 31.1992 203.719 31.2526 203.719 31.4395V32.4538C203.719 32.6407 203.772 32.694 203.959 32.694H205.002V37.8191C205.002 38.7801 205.082 39.6877 205.857 40.355C206.312 40.7287 206.953 40.9422 207.755 40.9422C208.852 40.9422 209.547 40.6486 210.562 39.7944C210.75 40.5152 210.883 40.6486 211.204 40.6486H213.369C213.557 40.6486 213.637 40.5952 213.637 40.4084" fill="white"/>
<path d="M220.506 40.3557L220.158 39.1278C220.105 38.941 219.998 39.0211 219.891 39.0478C219.623 39.1545 219.356 39.2346 219.142 39.2346C218.501 39.2346 218.447 38.7274 218.447 37.8466V26.9824C218.447 26.7956 218.394 26.7422 218.207 26.7422H215.346C215.159 26.7422 215.105 26.7956 215.105 26.9824V28.0235C215.105 28.2103 215.132 28.2637 215.346 28.2637H216.469V37.6597C216.469 39.3681 216.469 40.9697 218.714 40.9697C219.276 40.9697 219.917 40.8629 220.399 40.6494C220.586 40.5693 220.586 40.5426 220.532 40.3824" fill="white"/>
<path fill-rule="evenodd" clip-rule="evenodd" d="M230.186 35.7377C230.186 32.6146 228.849 30.9062 226.47 30.9062C224.09 30.9062 222.406 32.9349 222.406 36.0047C222.406 39.0744 223.957 40.9963 226.603 40.9963C227.619 40.9963 228.849 40.676 229.651 40.1955C229.892 40.062 229.972 39.9553 229.865 39.715L229.437 38.7541C229.384 38.5939 229.277 38.5672 229.17 38.6473C228.555 38.9142 227.94 39.3413 226.791 39.3413C225.293 39.3413 224.518 38.3537 224.438 36.4584H229.865C230.186 36.4584 230.186 36.1915 230.186 35.7377ZM228.1 34.9636H224.465C224.598 33.2019 225.187 32.4278 226.363 32.4278C227.539 32.4278 228.047 33.2553 228.1 34.9636Z" fill="white"/>
<path fill-rule="evenodd" clip-rule="evenodd" d="M257.344 28.0755C257.344 27.4082 256.81 26.8477 256.168 26.8477C255.526 26.8477 254.965 27.4082 254.965 28.0755C254.965 28.7429 255.5 29.25 256.168 29.25C256.836 29.25 257.344 28.7162 257.344 28.0755ZM253.682 28.0755C253.682 27.4082 253.147 26.8477 252.479 26.8477C251.81 26.8477 251.302 27.4082 251.302 28.0755C251.302 28.7429 251.81 29.25 252.479 29.25C253.147 29.25 253.682 28.7162 253.682 28.0755ZM258.307 35.95C258.307 32.7736 256.836 30.905 254.323 30.905C251.81 30.905 250.18 32.8002 250.18 35.9767C250.18 39.1532 251.65 40.9951 254.19 40.9951C256.729 40.9951 258.307 39.0998 258.307 35.95ZM256.195 35.8967C256.195 38.299 255.58 39.4202 254.243 39.4202C252.906 39.4202 252.265 38.299 252.265 35.8967C252.265 33.4943 252.906 32.5066 254.243 32.5066C255.58 32.5066 256.195 33.5743 256.195 35.8967Z" fill="white"/>
<path d="M167.867 51.2754H168.696C168.696 51.2754 168.856 51.222 168.856 51.1152V50.5814C168.856 50.5814 168.803 50.4212 168.696 50.4212H165.969C165.969 50.4212 165.809 50.4746 165.809 50.5814V51.1152C165.809 51.1152 165.862 51.2754 165.969 51.2754H166.798V56.9344C166.798 58.6694 167.68 59.4969 169.471 59.4969C170.46 59.4969 171.129 59.2834 171.663 58.7495C172.118 58.2957 172.305 57.7619 172.305 56.9077V51.2487H173.134C173.134 51.2487 173.294 51.1953 173.294 51.0886V50.5547C173.294 50.5547 173.24 50.3945 173.134 50.3945H170.46C170.46 50.3945 170.3 50.4479 170.3 50.5547V51.0886C170.3 51.0886 170.353 51.2487 170.46 51.2487H171.289V56.881C171.289 58.0822 170.728 58.616 169.525 58.616C168.322 58.616 167.867 58.1356 167.867 56.881V51.2487V51.2754Z" fill="white"/>
<path d="M180.218 58.5353V54.8516C180.218 54.1042 180.191 53.8639 180.004 53.5436C179.764 53.1432 179.282 52.9297 178.667 52.9297C177.946 52.9297 177.384 53.1699 176.582 53.8106C176.475 53.3034 176.368 53.1165 176.181 53.1165H174.871C174.871 53.1165 174.711 53.1699 174.711 53.2767V53.7839C174.711 53.7839 174.764 53.944 174.871 53.944H175.62C175.673 54.211 175.7 54.3711 175.7 54.7715V58.562H174.978C174.978 58.562 174.818 58.6153 174.818 58.7221V59.2026C174.818 59.2026 174.871 59.3628 174.978 59.3628H177.411C177.411 59.3628 177.571 59.3094 177.571 59.2026V58.6954C177.571 58.6954 177.518 58.5353 177.411 58.5353H176.689V54.5847C177.358 53.9974 177.785 53.7572 178.4 53.7572C179.015 53.7572 179.282 54.0775 179.282 54.8249V59.1492C179.282 59.1492 179.282 59.3094 179.416 59.3094H180.967C180.967 59.3094 181.127 59.256 181.127 59.1492V58.642C181.127 58.642 181.073 58.4819 180.967 58.4819H180.245L180.218 58.5353Z" fill="white"/>
<path fill-rule="evenodd" clip-rule="evenodd" d="M184.736 58.5314V53.2728C184.736 53.2728 184.71 53.1127 184.603 53.1127H182.731C182.731 53.1127 182.598 53.1127 182.598 53.2728V53.78C182.598 53.78 182.624 53.9135 182.731 53.9135H183.774V58.5314H182.838C182.838 58.5314 182.678 58.5848 182.678 58.6916V59.1721C182.678 59.1721 182.731 59.3322 182.838 59.3322H185.699C185.699 59.3322 185.859 59.2788 185.859 59.1721V58.6649C185.859 58.6649 185.806 58.5047 185.699 58.5047H184.736V58.5314ZM184.202 50.043C183.747 50.043 183.4 50.39 183.4 50.8171C183.4 51.2442 183.747 51.6179 184.202 51.6179C184.656 51.6179 184.977 51.2709 184.977 50.8438C184.977 50.4167 184.629 50.043 184.202 50.043Z" fill="white"/>
<path fill-rule="evenodd" clip-rule="evenodd" d="M191.233 53.8639L189.976 57.3608C189.869 57.6811 189.816 57.8145 189.709 58.1616L189.656 57.9213L189.575 57.601L189.495 57.3341L188.346 53.8639H189.067C189.067 53.8639 189.228 53.8106 189.228 53.7038V53.25C189.228 53.25 189.174 53.0898 189.067 53.0898H186.875C186.875 53.0898 186.715 53.1432 186.715 53.25V53.7572C186.715 53.7572 186.768 53.9173 186.875 53.9173H187.303L189.281 59.3094C189.281 59.3094 189.335 59.4161 189.442 59.4161H189.95C189.95 59.4161 190.057 59.4161 190.11 59.3094L192.249 53.9173H192.623C192.623 53.9173 192.783 53.8639 192.783 53.7572V53.2767C192.783 53.2767 192.73 53.1165 192.623 53.1165H190.457C190.457 53.1165 190.297 53.1699 190.297 53.2767V53.7305C190.297 53.7305 190.351 53.8906 190.457 53.8906H191.233V53.8639Z" fill="white"/>
<path fill-rule="evenodd" clip-rule="evenodd" d="M199.067 56.4532C199.067 56.4532 199.2 56.3998 199.2 56.213C199.2 55.3855 199.147 54.905 199.013 54.4779C198.666 53.4902 197.89 52.9297 196.848 52.9297C195.297 52.9297 194.281 54.2377 194.281 56.2396C194.281 58.2416 195.324 59.5229 196.981 59.5229C197.516 59.5229 198.077 59.3894 198.585 59.1492C198.933 58.989 199.04 58.8823 199.04 58.7755C199.04 58.7755 199.04 58.7488 199.04 58.6954L198.799 58.1883C198.799 58.1883 198.746 58.1349 198.719 58.1349C198.666 58.1349 198.639 58.1349 198.585 58.1616C198.024 58.4819 197.543 58.6153 197.088 58.6153C196.046 58.6153 195.431 57.8412 195.377 56.4265H199.093L199.067 56.4532ZM195.324 55.6524C195.404 54.3978 195.885 53.7305 196.767 53.7305C197.65 53.7305 198.131 54.4245 198.158 55.6524H195.324Z" fill="white"/>
<path d="M202.838 58.534V54.877C203.479 54.1296 203.773 53.8893 204.067 53.8893C204.148 53.8893 204.228 53.916 204.468 53.9694C204.468 53.9694 204.495 53.9694 204.522 53.9694C204.549 53.9694 204.549 53.9694 204.575 53.916L204.896 53.1953C204.896 53.1953 204.896 53.1152 204.896 53.0885C204.896 53.0085 204.522 52.875 204.255 52.875C203.907 52.875 203.533 53.0619 203.212 53.3822C203.078 53.5156 202.998 53.5957 202.704 53.9427C202.597 53.3822 202.41 53.0352 202.196 53.0352H201.02C201.02 53.0352 200.859 53.0885 200.859 53.1953V53.7025C200.859 53.7025 200.913 53.8627 201.02 53.8627H201.715C201.822 54.2364 201.848 54.4232 201.848 55.2507V58.5073H201.1C201.1 58.5073 200.966 58.5607 200.966 58.6674V59.1479C200.966 59.1479 201.02 59.3081 201.1 59.3081H203.64C203.64 59.3081 203.8 59.2547 203.8 59.1479V58.6407C203.8 58.6407 203.747 58.4806 203.64 58.4806H202.811L202.838 58.534Z" fill="white"/>
<path d="M209.439 54.6654C209.439 54.6654 209.493 54.8256 209.6 54.8256H210.135C210.135 54.8256 210.295 54.7722 210.295 54.6654V53.5443C210.295 53.5443 210.268 53.3841 210.161 53.3307C209.734 53.1172 209.119 52.957 208.637 52.957C207.488 52.957 206.659 53.7044 206.659 54.7722C206.659 55.2793 206.846 55.6797 207.247 56.0001C207.568 56.267 207.809 56.4005 208.691 56.8276C209.306 57.0945 209.52 57.3614 209.52 57.7885C209.52 58.3491 209.092 58.7495 208.477 58.7495C208.13 58.7495 207.809 58.6961 207.301 58.4825V57.7351C207.301 57.7351 207.247 57.575 207.14 57.575H206.606C206.606 57.575 206.445 57.6283 206.445 57.7351V58.9363C206.445 59.2032 207.622 59.577 208.424 59.577C209.68 59.577 210.509 58.8295 210.509 57.7351C210.509 56.961 210.188 56.5339 209.199 56.0801C208.415 55.7064 207.96 55.4573 207.835 55.3327C207.675 55.1726 207.568 54.9323 207.568 54.6921C207.568 54.1582 207.942 53.8379 208.557 53.8379C208.825 53.8379 209.038 53.8646 209.386 54.0248V54.7455L209.439 54.6654Z" fill="white"/>
<path fill-rule="evenodd" clip-rule="evenodd" d="M214.33 58.5314V53.2728C214.33 53.2728 214.33 53.1127 214.196 53.1127H212.325C212.325 53.1127 212.191 53.1127 212.191 53.2728V53.78C212.191 53.78 212.218 53.9135 212.325 53.9135H213.368V58.5314H212.432C212.432 58.5314 212.272 58.5848 212.272 58.6916V59.1721C212.272 59.1721 212.325 59.3322 212.432 59.3322H215.292C215.292 59.3322 215.453 59.2788 215.453 59.1721V58.6649C215.453 58.6649 215.399 58.5047 215.292 58.5047H214.33V58.5314ZM213.795 50.043C213.341 50.043 212.993 50.39 212.993 50.8171C212.993 51.2442 213.341 51.6179 213.795 51.6179C214.25 51.6179 214.571 51.2709 214.571 50.8438C214.571 50.4167 214.223 50.043 213.795 50.043Z" fill="white"/>
<path d="M217.671 53.1146H216.762C216.762 53.1146 216.602 53.1413 216.602 53.2748V53.782C216.602 53.782 216.602 53.9154 216.762 53.9154H217.671V57.5724C217.671 58.2397 217.698 58.48 217.831 58.7469C218.072 59.2007 218.607 59.4676 219.248 59.4676C219.89 59.4676 220.932 59.1473 220.932 58.9604C220.932 58.9604 220.923 58.9426 220.906 58.9071L220.772 58.3732C220.772 58.3732 220.718 58.2931 220.692 58.2931C220.692 58.2931 220.638 58.2931 220.612 58.2931C220.05 58.5334 219.756 58.6134 219.435 58.6134C219.141 58.6134 218.927 58.5334 218.794 58.3465C218.687 58.1863 218.66 58.0796 218.66 57.5457V53.8887H220.398C220.398 53.8887 220.558 53.862 220.585 53.7553L220.719 53.2481C220.719 53.2481 220.719 53.1947 220.719 53.168C220.719 53.1146 220.665 53.0879 220.612 53.0879H218.66V51.0859C218.66 51.0859 218.66 50.9258 218.58 50.9258C218.58 50.9258 218.553 50.9347 218.5 50.9525L217.831 51.1393C217.831 51.1393 217.698 51.2194 217.698 51.2995V53.0879L217.671 53.1146Z" fill="white"/>
<path d="M223.688 53.8639H224.516C224.516 53.8639 224.677 53.8106 224.677 53.7038V53.25C224.677 53.25 224.623 53.0898 224.516 53.0898H222.137C222.137 53.0898 221.977 53.1432 221.977 53.25V53.7572C221.977 53.7572 222.03 53.9173 222.137 53.9173H222.645L224.516 59.2293C224.516 59.2293 224.57 59.3361 224.677 59.3361H225.131L224.864 60.1636C224.623 60.911 224.302 61.258 223.875 61.258C223.554 61.258 223.153 61.0978 222.725 60.8042C222.698 60.8042 222.672 60.7775 222.645 60.7775C222.645 60.7775 222.565 60.7775 222.565 60.8309L222.297 61.3381C222.297 61.3381 222.297 61.3914 222.297 61.4181C222.297 61.6584 223.313 62.0588 223.955 62.0588C224.65 62.0588 225.185 61.6851 225.505 60.991C225.719 60.5373 226.094 59.4962 226.388 58.5086L227.724 53.8906H228.205C228.205 53.8906 228.366 53.8373 228.366 53.7305V53.25C228.366 53.25 228.312 53.0898 228.205 53.0898H225.933C225.933 53.0898 225.773 53.1432 225.773 53.25V53.7038C225.773 53.7038 225.826 53.8639 225.933 53.8639H226.708L225.612 58.0548C225.559 58.3484 225.479 58.5886 225.398 58.9624C225.265 58.3751 225.265 58.3751 225.131 58.0281L223.714 53.8639H223.688Z" fill="white"/>
<path d="M237.429 58.2964C237.001 58.5633 236.68 58.6701 236.253 58.6701C235.023 58.6701 234.408 57.3087 234.408 54.6928C234.408 52.0769 234.916 51.1426 236.172 51.1426C236.573 51.1426 236.894 51.2227 237.375 51.5163V52.6107C237.375 52.6107 237.429 52.7709 237.536 52.7709H238.124C238.124 52.7709 238.284 52.7175 238.284 52.6107V51.1693C238.284 51.1693 238.258 51.0091 238.177 50.9291C237.696 50.5287 236.841 50.2617 236.172 50.2617C234.274 50.2617 233.285 51.7832 233.285 54.7996C233.285 57.8159 234.301 59.5243 236.279 59.5243C236.948 59.5243 237.723 59.2573 238.231 58.8836C238.311 58.8036 238.338 58.7502 238.338 58.6167V57.1753C238.338 57.1753 238.284 57.0151 238.177 57.0151H237.589C237.589 57.0151 237.429 57.0685 237.429 57.1753V58.2964Z" fill="white"/>
<path fill-rule="evenodd" clip-rule="evenodd" d="M242.986 52.929C241.302 52.929 240.312 54.1569 240.312 56.239C240.312 58.3211 241.221 59.4956 242.825 59.4956C244.51 59.4956 245.499 58.2677 245.499 56.1589C245.499 54.0502 244.563 52.9023 242.986 52.9023M242.906 53.7565C243.922 53.7565 244.456 54.584 244.456 56.1856C244.456 57.0131 244.296 57.7605 244.028 58.1609C243.815 58.5079 243.387 58.6948 242.932 58.6948C242.478 58.6948 242.023 58.4812 241.783 58.1342C241.542 57.7071 241.382 56.9597 241.382 56.1322C241.382 54.584 241.917 53.7565 242.906 53.7565Z" fill="white"/>
<path d="M247.666 50.8483V56.9611C247.666 57.8508 247.684 58.3847 247.72 58.5627C247.853 59.1232 248.334 59.4702 249.056 59.4702C249.537 59.4702 250.152 59.2834 250.152 59.1499C250.152 59.1499 250.143 59.1232 250.126 59.0698L249.965 58.5894C249.965 58.5894 249.912 58.5093 249.885 58.5093C249.858 58.5093 249.832 58.5093 249.778 58.536C249.564 58.6427 249.377 58.6961 249.19 58.6961C248.896 58.6961 248.709 58.5093 248.682 58.189C248.682 58.0288 248.655 57.6284 248.655 57.0145V50.2077C248.655 50.2077 248.629 50.0742 248.522 50.0742H246.891C246.891 50.0742 246.73 50.1276 246.73 50.2344V50.7416C246.73 50.7416 246.784 50.9017 246.891 50.9017H247.693L247.666 50.8483Z" fill="white"/>
<path fill-rule="evenodd" clip-rule="evenodd" d="M254.111 52.929C252.427 52.929 251.438 54.1569 251.438 56.239C251.438 58.3211 252.346 59.4956 253.95 59.4956C255.635 59.4956 256.624 58.2677 256.624 56.1589C256.624 54.0502 255.688 52.9023 254.111 52.9023M254.004 53.7565C255.02 53.7565 255.554 54.584 255.554 56.1856C255.554 57.0131 255.394 57.7605 255.127 58.1609C254.913 58.5079 254.485 58.6948 254.031 58.6948C253.576 58.6948 253.122 58.4812 252.881 58.1342C252.641 57.7071 252.48 56.9597 252.48 56.1322C252.48 54.584 253.015 53.7565 254.004 53.7565Z" fill="white"/>
<path fill-rule="evenodd" clip-rule="evenodd" d="M258.844 61.2827C258.844 61.2827 258.818 61.3361 258.818 61.3628C258.818 61.4429 258.844 61.4696 259.058 61.5763C259.619 61.87 260.341 62.0568 261.01 62.0568C262.48 62.0568 263.282 61.256 263.282 59.7612C263.282 59.601 263.282 59.2807 263.282 59.0138C263.229 57.866 263.228 57.6791 263.228 56.7983V54.7963C263.228 54.2357 263.309 53.862 263.549 53.4883C263.603 53.3815 263.629 53.3548 263.629 53.3281C263.629 53.3014 263.603 53.2747 263.576 53.2481L262.988 52.8744C262.988 52.8744 262.908 52.8477 262.881 52.8477C262.801 52.8477 262.64 53.0879 262.507 53.4349C261.919 53.0345 261.544 52.901 260.956 52.901C259.406 52.901 258.523 54.1022 258.523 56.2377C258.523 58.0261 259.299 59.1206 260.528 59.1206C261.17 59.1206 261.731 58.907 262.32 58.3998C262.32 58.56 262.32 58.5867 262.32 59.0672C262.32 59.3074 262.32 59.521 262.32 59.7345C262.32 60.215 262.266 60.4819 262.132 60.6688C261.945 60.9624 261.491 61.1226 260.983 61.1226C260.475 61.1226 259.833 60.9357 259.299 60.6421C259.272 60.6154 259.219 60.5887 259.192 60.5887C259.192 60.5887 259.138 60.6154 259.112 60.6688L258.871 61.1759L258.844 61.2827ZM262.239 57.6524C261.598 58.1329 261.17 58.2931 260.689 58.2931C259.86 58.2931 259.513 57.6257 259.513 56.0508C259.513 54.5827 260.021 53.7819 261.01 53.7819C261.384 53.7819 261.731 53.8887 262.239 54.1556V57.6524Z" fill="white"/>
<path d="M270.976 58.5353V54.8516C270.976 54.1042 270.949 53.8639 270.762 53.5436C270.521 53.1432 270.04 52.9297 269.425 52.9297C268.703 52.9297 268.142 53.1699 267.34 53.8106C267.233 53.3034 267.126 53.1165 266.939 53.1165H265.629C265.629 53.1165 265.469 53.1699 265.469 53.2767V53.7839C265.469 53.7839 265.522 53.944 265.629 53.944H266.378C266.431 54.211 266.458 54.3711 266.458 54.7715V58.562H265.736C265.736 58.562 265.576 58.6153 265.576 58.7221V59.2026C265.576 59.2026 265.629 59.3628 265.736 59.3628H268.169C268.169 59.3628 268.329 59.3094 268.329 59.2026V58.6954C268.329 58.6954 268.276 58.5353 268.169 58.5353H267.447V54.5847C268.115 53.9974 268.543 53.7572 269.158 53.7572C269.773 53.7572 270.04 54.0775 270.04 54.8249V59.1492C270.04 59.1492 270.04 59.3094 270.174 59.3094H271.724C271.724 59.3094 271.885 59.256 271.885 59.1492V58.642C271.885 58.642 271.831 58.4819 271.724 58.4819H271.003L270.976 58.5353Z" fill="white"/>
<path fill-rule="evenodd" clip-rule="evenodd" d="M278.277 56.4532C278.277 56.4532 278.411 56.3998 278.411 56.213C278.411 55.3855 278.358 54.905 278.224 54.4779C277.876 53.4902 277.101 52.9297 276.059 52.9297C274.508 52.9297 273.492 54.2377 273.492 56.2396C273.492 58.2416 274.535 59.5229 276.192 59.5229C276.727 59.5229 277.288 59.3894 277.796 59.1492C278.144 58.989 278.277 58.8823 278.277 58.7755C278.277 58.7755 278.277 58.7488 278.277 58.6954L278.037 58.1883C278.037 58.1883 277.983 58.1349 277.957 58.1349C277.93 58.1349 277.876 58.1349 277.823 58.1616C277.262 58.4819 276.78 58.6153 276.326 58.6153C275.283 58.6153 274.668 57.8412 274.615 56.4265H278.331L278.277 56.4532ZM274.535 55.6524C274.615 54.3978 275.096 53.7305 275.978 53.7305C276.861 53.7305 277.342 54.4245 277.368 55.6524H274.535Z" fill="white"/>
<path fill-rule="evenodd" clip-rule="evenodd" d="M248.469 40.4072V39.3928C248.469 39.1793 248.416 39.1259 248.202 39.1259H247.373L243.23 33.9474L247.106 28.9024H248.015C248.229 28.9024 248.282 28.8223 248.282 28.6088V27.5944C248.282 27.3809 248.229 27.3275 248.015 27.3275H244.219C244.005 27.3275 243.925 27.3809 243.925 27.5944V28.6088C243.925 28.8223 244.005 28.9024 244.219 28.9024H244.78L241.251 33.6538V28.9024H242.321C242.561 28.9024 242.615 28.849 242.615 28.5821V27.6211C242.615 27.3809 242.588 27.3008 242.321 27.3008H238.017C237.776 27.3008 237.723 27.3542 237.723 27.6211V28.5821C237.723 28.8223 237.776 28.9024 238.017 28.9024H239.14V39.1259H238.017C237.776 39.1259 237.723 39.1793 237.723 39.4462V40.4072C237.723 40.6474 237.776 40.7008 238.017 40.7008H242.267C242.508 40.7008 242.615 40.6741 242.615 40.4072V39.4462C242.615 39.1793 242.535 39.1259 242.294 39.1259H241.251V34.5346L244.807 39.1259H244.219C244.005 39.1259 243.952 39.1793 243.952 39.3928V40.4072C243.952 40.6207 244.058 40.6741 244.246 40.6741H248.175C248.389 40.6741 248.443 40.6207 248.443 40.4072" fill="white"/>
<path d="M265.549 40.3557L265.201 39.1278C265.148 38.941 265.041 39.0211 264.934 39.0478C264.666 39.1545 264.399 39.2346 264.185 39.2346C263.544 39.2346 263.49 38.7274 263.49 37.8466V26.9824C263.49 26.7956 263.437 26.7422 263.249 26.7422H260.389C260.202 26.7422 260.148 26.7956 260.148 26.9824V28.0235C260.148 28.2103 260.175 28.2637 260.389 28.2637H261.512V37.6597C261.512 39.3681 261.512 40.9697 263.757 40.9697C264.319 40.9697 264.96 40.8629 265.442 40.6494C265.629 40.5693 265.629 40.5426 265.575 40.3824" fill="white"/>
<path d="M277.636 40.4624V39.4214C277.636 39.2345 277.582 39.1812 277.395 39.1812H276.326V33.8959C276.326 31.7604 275.631 30.9062 273.92 30.9062C272.797 30.9062 271.995 31.28 270.845 32.2409C270.685 31.6003 270.712 31.1999 270.257 31.1999H267.905C267.718 31.1999 267.664 31.2533 267.664 31.4401V32.4545C267.664 32.6413 267.718 32.6947 267.905 32.6947H268.947C269.054 33.2019 269.081 33.4421 269.081 34.1094V39.1545H268.012C267.824 39.1545 267.771 39.2078 267.771 39.3947V40.4357C267.771 40.6226 267.824 40.676 268.012 40.676H272.102C272.289 40.676 272.369 40.6493 272.369 40.4357V39.3947C272.369 39.2078 272.262 39.1545 272.102 39.1545H271.059V33.5222C271.888 32.7748 272.449 32.4812 273.171 32.4812C274 32.4812 274.321 32.9616 274.321 34.1094V40.3557C274.321 40.5959 274.374 40.6226 274.615 40.6226H277.395C277.582 40.6226 277.636 40.5692 277.636 40.3823" fill="white"/>
<path fill-rule="evenodd" clip-rule="evenodd" d="M11.6374 28.1053V48.5256H8.4027C5.80957 44.1212 4.3125 38.9961 4.3125 33.4973C4.3125 17.1611 17.599 3.89453 33.9598 3.89453C50.3206 3.89453 63.6071 17.1344 63.6071 33.4973C63.6071 38.9694 62.11 44.1212 59.5169 48.5256H56.2554V28.1053H57.699V26.4236H49.5186V28.1053H50.9622V48.5256H43.1293V28.1053H44.5729V26.4236H36.3925V28.1053H37.8361V48.5256H30.0032V28.1053H31.4468V26.4236H23.2664V28.1053H24.71V48.5256H16.8772V28.1053H18.3208V26.4236H10.1404V28.1053H11.6374ZM10.1938 23.781H57.699V20.4977L33.9598 7.20449L10.1938 20.4977V23.781ZM17.893 20.2308L33.933 11.2886L49.9998 20.2308H17.8663H17.893ZM12.8404 54.2646C12.0117 53.4372 11.2364 52.5563 10.5414 51.622H57.4049C56.6831 52.5563 55.9079 53.4372 55.0791 54.2646H12.8404ZM51.4434 57.4145C46.5512 60.9913 40.5094 63.1001 33.9598 63.1001C27.4101 63.1001 21.3684 60.9913 16.4762 57.4145H51.4434Z" fill="white"/>
<path d="M1.26562 33.4935C1.26562 15.4755 15.9155 0.847656 33.9605 0.847656C52.0055 0.847656 66.6554 15.4755 66.6554 33.4935C66.6554 51.5114 52.0055 66.1393 33.9605 66.1393C15.9155 66.1393 1.26562 51.5114 1.26562 33.4935Z" stroke="white" stroke-width="0.64" stroke-miterlimit="2.42"/>
</g>
<defs>
<clipPath id="clip0_4108_1398">
<rect width="278" height="67" fill="white" transform="translate(0.410156 -0.00390625)"/>
</clipPath>
</defs>
</svg>
