<svg width="508" height="325" viewBox="0 0 508 325" fill="none" xmlns="http://www.w3.org/2000/svg">
<g filter="url(#filter0_dddi_6027_260)">
<path d="M211.357 137.209C214.701 135.942 218.081 135.344 221.882 135.344C231.422 135.344 239.941 139.744 245.537 146.608C246.277 147.523 246.77 148.685 246.77 149.917C246.77 151.642 246.03 153.085 244.728 154.035L244.657 154.141C243.777 154.775 242.686 155.162 241.525 155.162C239.87 155.162 238.392 154.387 237.441 153.226C236.315 151.818 235.012 150.621 233.569 149.565C230.295 147.242 226.247 145.834 221.918 145.834C219.418 145.834 217.201 146.256 215.018 147.101C210.794 148.65 207.204 151.571 204.88 155.303C203.015 158.365 201.888 161.956 201.888 165.757C201.888 168.573 202.522 171.249 203.543 173.678C204.951 176.916 207.133 179.732 209.914 181.809C213.223 184.273 217.377 185.751 221.847 185.751C228.078 185.751 233.745 182.795 237.406 178.289C238.356 177.057 239.835 176.282 241.489 176.282C244.376 176.282 246.734 178.641 246.734 181.527C246.734 182.759 246.312 183.921 245.573 184.836C239.976 191.771 231.457 196.241 221.847 196.241C205.056 196.241 191.398 182.619 191.398 165.757C191.398 159.844 193.123 154.282 196.045 149.565C199.6 144.003 205.092 139.603 211.357 137.209Z" fill="white"/>
</g>
<g filter="url(#filter1_dddi_6027_260)">
<path d="M274.365 137.209C277.709 135.942 281.089 135.344 284.89 135.344C294.43 135.344 302.948 139.744 308.545 146.608C309.285 147.523 309.742 148.685 309.742 149.917C309.742 151.642 308.968 153.085 307.7 154.035L307.63 154.141C306.75 154.775 305.659 155.162 304.497 155.162C302.843 155.162 301.399 154.387 300.414 153.191C299.287 151.783 297.985 150.586 296.507 149.53C293.233 147.171 289.22 145.798 284.855 145.798C282.356 145.798 280.138 146.221 277.956 147.066C273.837 148.65 270.211 151.571 267.888 155.303C266.023 158.33 264.896 161.92 264.896 165.793C264.896 168.573 265.53 171.249 266.586 173.678C267.959 176.916 270.176 179.732 272.957 181.809C276.266 184.308 280.42 185.787 284.855 185.787C291.121 185.787 296.753 182.83 300.414 178.324C301.364 177.127 302.843 176.318 304.497 176.318C307.419 176.318 309.742 178.676 309.742 181.563C309.742 182.795 309.285 183.956 308.58 184.836C302.984 191.806 294.465 196.241 284.855 196.241C268.064 196.241 254.406 182.619 254.406 165.793C254.406 159.808 256.131 154.282 259.088 149.6C262.608 144.003 268.099 139.568 274.365 137.209Z" fill="white"/>
</g>
<g filter="url(#filter2_dddi_6027_260)">
<path d="M324.317 184.84C329.914 191.775 338.433 196.21 348.043 196.21C364.869 196.21 378.491 182.587 378.491 165.726C378.491 159.812 376.802 154.251 373.845 149.569C372.894 148.09 371.24 147.07 369.374 147.07C366.488 147.07 364.129 149.428 364.129 152.315C364.129 153.335 364.517 154.462 365.009 155.271C366.91 158.334 368.002 161.924 368.002 165.726C368.002 168.542 367.403 171.217 366.347 173.646C364.939 176.885 362.757 179.701 359.976 181.778C356.632 184.242 352.513 185.72 348.043 185.72C341.777 185.72 336.145 182.763 332.484 178.258C329.668 174.808 328.049 170.549 328.049 165.726C328.049 159.073 331.322 153.124 336.391 149.498C339.665 147.175 343.678 145.767 348.043 145.767C350.507 145.767 352.76 146.19 354.942 147.034C355.505 147.246 356.104 147.351 356.737 147.351C359.624 147.351 361.982 144.993 361.982 142.106C361.982 139.853 360.539 137.917 358.533 137.178C355.188 135.911 351.809 135.312 348.007 135.312C338.468 135.312 329.914 139.713 324.317 146.577C320.058 151.822 317.523 158.51 317.523 165.761C317.559 173.013 320.093 179.63 324.317 184.84Z" fill="white"/>
</g>
<g filter="url(#filter3_dddi_6027_260)">
<path d="M148.416 137.209C146.409 137.949 145.001 139.885 145.001 142.138C145.001 145.024 147.36 147.382 150.246 147.382C150.88 147.382 151.478 147.277 152.042 147.066C154.224 146.256 156.477 145.798 158.976 145.798C163.306 145.798 167.389 147.277 170.663 149.635L140.672 173.678C139.651 171.249 139.052 168.609 139.052 165.828C139.052 161.956 140.144 158.365 142.009 155.338C142.537 154.528 142.925 153.402 142.925 152.381C142.925 149.495 140.601 147.136 137.68 147.136C135.814 147.136 134.16 148.157 133.244 149.6C130.217 154.282 128.492 159.844 128.492 165.828C128.492 182.619 142.115 196.241 158.941 196.241C168.551 196.241 177.105 191.806 182.666 184.836C183.406 183.956 183.828 182.795 183.828 181.563C183.828 178.676 181.47 176.318 178.583 176.318C176.929 176.318 175.45 177.092 174.5 178.289C170.839 182.795 165.207 185.751 158.976 185.751C154.506 185.751 150.387 184.238 147.043 181.774L181.716 154.035C183.018 153.05 183.793 151.642 183.793 149.917C183.793 148.685 183.3 147.488 182.561 146.608C176.999 139.744 168.445 135.344 158.906 135.344C155.174 135.344 151.76 135.977 148.416 137.209Z" fill="white"/>
</g>
<g filter="url(#filter4_dddi_6027_260)">
<path d="M368.142 134.676C368.142 131.79 370.501 129.431 373.422 129.431C376.309 129.431 378.667 131.79 378.667 134.676C378.667 137.563 376.309 139.921 373.422 139.921C370.501 139.921 368.142 137.563 368.142 134.676ZM366.875 134.676C366.875 138.267 369.797 141.188 373.387 141.188C376.978 141.188 379.899 138.267 379.899 134.676C379.899 131.086 376.978 128.164 373.387 128.164C369.797 128.164 366.875 131.086 366.875 134.676Z" fill="white"/>
</g>
<g filter="url(#filter5_dddi_6027_260)">
<path d="M371.309 131.438H372.681C374.09 131.438 375.709 131.402 375.709 133.198C375.709 133.972 375.181 134.606 374.371 134.711V134.746C374.758 134.782 374.934 135.134 375.075 135.415L376.096 137.915H374.653L373.878 135.908C373.702 135.415 373.526 135.239 372.998 135.239H372.576V137.915H371.273V131.438H371.309ZM372.611 134.218H373.033C373.667 134.218 374.406 134.113 374.406 133.303C374.406 132.529 373.702 132.458 373.033 132.458H372.611V134.218Z" fill="white"/>
</g>
<defs>
<filter id="filter0_dddi_6027_260" x="63.3984" y="7.34375" width="311.371" height="316.897" filterUnits="userSpaceOnUse" color-interpolation-filters="sRGB">
<feFlood flood-opacity="0" result="BackgroundImageFix"/>
<feColorMatrix in="SourceAlpha" type="matrix" values="0 0 0 0 0 0 0 0 0 0 0 0 0 0 0 0 0 0 127 0" result="hardAlpha"/>
<feOffset/>
<feGaussianBlur stdDeviation="64"/>
<feComposite in2="hardAlpha" operator="out"/>
<feColorMatrix type="matrix" values="0 0 0 0 0.27451 0 0 0 0 0.768627 0 0 0 0 1 0 0 0 1 0"/>
<feBlend mode="normal" in2="BackgroundImageFix" result="effect1_dropShadow_6027_260"/>
<feColorMatrix in="SourceAlpha" type="matrix" values="0 0 0 0 0 0 0 0 0 0 0 0 0 0 0 0 0 0 127 0" result="hardAlpha"/>
<feOffset/>
<feGaussianBlur stdDeviation="16"/>
<feComposite in2="hardAlpha" operator="out"/>
<feColorMatrix type="matrix" values="0 0 0 0 0.273709 0 0 0 0 0.770008 0 0 0 0 1 0 0 0 1 0"/>
<feBlend mode="normal" in2="effect1_dropShadow_6027_260" result="effect2_dropShadow_6027_260"/>
<feColorMatrix in="SourceAlpha" type="matrix" values="0 0 0 0 0 0 0 0 0 0 0 0 0 0 0 0 0 0 127 0" result="hardAlpha"/>
<feOffset/>
<feGaussianBlur stdDeviation="4"/>
<feComposite in2="hardAlpha" operator="out"/>
<feColorMatrix type="matrix" values="0 0 0 0 0 0 0 0 0 0.912307 0 0 0 0 0.943766 0 0 0 1 0"/>
<feBlend mode="normal" in2="effect2_dropShadow_6027_260" result="effect3_dropShadow_6027_260"/>
<feBlend mode="normal" in="SourceGraphic" in2="effect3_dropShadow_6027_260" result="shape"/>
<feColorMatrix in="SourceAlpha" type="matrix" values="0 0 0 0 0 0 0 0 0 0 0 0 0 0 0 0 0 0 127 0" result="hardAlpha"/>
<feOffset/>
<feGaussianBlur stdDeviation="1"/>
<feComposite in2="hardAlpha" operator="arithmetic" k2="-1" k3="1"/>
<feColorMatrix type="matrix" values="0 0 0 0 0.27451 0 0 0 0 0.768627 0 0 0 0 1 0 0 0 1 0"/>
<feBlend mode="normal" in2="shape" result="effect4_innerShadow_6027_260"/>
</filter>
<filter id="filter1_dddi_6027_260" x="126.406" y="7.34375" width="311.336" height="316.897" filterUnits="userSpaceOnUse" color-interpolation-filters="sRGB">
<feFlood flood-opacity="0" result="BackgroundImageFix"/>
<feColorMatrix in="SourceAlpha" type="matrix" values="0 0 0 0 0 0 0 0 0 0 0 0 0 0 0 0 0 0 127 0" result="hardAlpha"/>
<feOffset/>
<feGaussianBlur stdDeviation="64"/>
<feComposite in2="hardAlpha" operator="out"/>
<feColorMatrix type="matrix" values="0 0 0 0 0.27451 0 0 0 0 0.768627 0 0 0 0 1 0 0 0 1 0"/>
<feBlend mode="normal" in2="BackgroundImageFix" result="effect1_dropShadow_6027_260"/>
<feColorMatrix in="SourceAlpha" type="matrix" values="0 0 0 0 0 0 0 0 0 0 0 0 0 0 0 0 0 0 127 0" result="hardAlpha"/>
<feOffset/>
<feGaussianBlur stdDeviation="16"/>
<feComposite in2="hardAlpha" operator="out"/>
<feColorMatrix type="matrix" values="0 0 0 0 0.273709 0 0 0 0 0.770008 0 0 0 0 1 0 0 0 1 0"/>
<feBlend mode="normal" in2="effect1_dropShadow_6027_260" result="effect2_dropShadow_6027_260"/>
<feColorMatrix in="SourceAlpha" type="matrix" values="0 0 0 0 0 0 0 0 0 0 0 0 0 0 0 0 0 0 127 0" result="hardAlpha"/>
<feOffset/>
<feGaussianBlur stdDeviation="4"/>
<feComposite in2="hardAlpha" operator="out"/>
<feColorMatrix type="matrix" values="0 0 0 0 0 0 0 0 0 0.912307 0 0 0 0 0.943766 0 0 0 1 0"/>
<feBlend mode="normal" in2="effect2_dropShadow_6027_260" result="effect3_dropShadow_6027_260"/>
<feBlend mode="normal" in="SourceGraphic" in2="effect3_dropShadow_6027_260" result="shape"/>
<feColorMatrix in="SourceAlpha" type="matrix" values="0 0 0 0 0 0 0 0 0 0 0 0 0 0 0 0 0 0 127 0" result="hardAlpha"/>
<feOffset/>
<feGaussianBlur stdDeviation="1"/>
<feComposite in2="hardAlpha" operator="arithmetic" k2="-1" k3="1"/>
<feColorMatrix type="matrix" values="0 0 0 0 0.27451 0 0 0 0 0.768627 0 0 0 0 1 0 0 0 1 0"/>
<feBlend mode="normal" in2="shape" result="effect4_innerShadow_6027_260"/>
</filter>
<filter id="filter2_dddi_6027_260" x="189.523" y="7.3125" width="316.969" height="316.897" filterUnits="userSpaceOnUse" color-interpolation-filters="sRGB">
<feFlood flood-opacity="0" result="BackgroundImageFix"/>
<feColorMatrix in="SourceAlpha" type="matrix" values="0 0 0 0 0 0 0 0 0 0 0 0 0 0 0 0 0 0 127 0" result="hardAlpha"/>
<feOffset/>
<feGaussianBlur stdDeviation="64"/>
<feComposite in2="hardAlpha" operator="out"/>
<feColorMatrix type="matrix" values="0 0 0 0 0.27451 0 0 0 0 0.768627 0 0 0 0 1 0 0 0 1 0"/>
<feBlend mode="normal" in2="BackgroundImageFix" result="effect1_dropShadow_6027_260"/>
<feColorMatrix in="SourceAlpha" type="matrix" values="0 0 0 0 0 0 0 0 0 0 0 0 0 0 0 0 0 0 127 0" result="hardAlpha"/>
<feOffset/>
<feGaussianBlur stdDeviation="16"/>
<feComposite in2="hardAlpha" operator="out"/>
<feColorMatrix type="matrix" values="0 0 0 0 0.273709 0 0 0 0 0.770008 0 0 0 0 1 0 0 0 1 0"/>
<feBlend mode="normal" in2="effect1_dropShadow_6027_260" result="effect2_dropShadow_6027_260"/>
<feColorMatrix in="SourceAlpha" type="matrix" values="0 0 0 0 0 0 0 0 0 0 0 0 0 0 0 0 0 0 127 0" result="hardAlpha"/>
<feOffset/>
<feGaussianBlur stdDeviation="4"/>
<feComposite in2="hardAlpha" operator="out"/>
<feColorMatrix type="matrix" values="0 0 0 0 0 0 0 0 0 0.912307 0 0 0 0 0.943766 0 0 0 1 0"/>
<feBlend mode="normal" in2="effect2_dropShadow_6027_260" result="effect3_dropShadow_6027_260"/>
<feBlend mode="normal" in="SourceGraphic" in2="effect3_dropShadow_6027_260" result="shape"/>
<feColorMatrix in="SourceAlpha" type="matrix" values="0 0 0 0 0 0 0 0 0 0 0 0 0 0 0 0 0 0 127 0" result="hardAlpha"/>
<feOffset/>
<feGaussianBlur stdDeviation="1"/>
<feComposite in2="hardAlpha" operator="arithmetic" k2="-1" k3="1"/>
<feColorMatrix type="matrix" values="0 0 0 0 0.27451 0 0 0 0 0.768627 0 0 0 0 1 0 0 0 1 0"/>
<feBlend mode="normal" in2="shape" result="effect4_innerShadow_6027_260"/>
</filter>
<filter id="filter3_dddi_6027_260" x="0.492188" y="7.34375" width="311.336" height="316.897" filterUnits="userSpaceOnUse" color-interpolation-filters="sRGB">
<feFlood flood-opacity="0" result="BackgroundImageFix"/>
<feColorMatrix in="SourceAlpha" type="matrix" values="0 0 0 0 0 0 0 0 0 0 0 0 0 0 0 0 0 0 127 0" result="hardAlpha"/>
<feOffset/>
<feGaussianBlur stdDeviation="64"/>
<feComposite in2="hardAlpha" operator="out"/>
<feColorMatrix type="matrix" values="0 0 0 0 0.27451 0 0 0 0 0.768627 0 0 0 0 1 0 0 0 1 0"/>
<feBlend mode="normal" in2="BackgroundImageFix" result="effect1_dropShadow_6027_260"/>
<feColorMatrix in="SourceAlpha" type="matrix" values="0 0 0 0 0 0 0 0 0 0 0 0 0 0 0 0 0 0 127 0" result="hardAlpha"/>
<feOffset/>
<feGaussianBlur stdDeviation="16"/>
<feComposite in2="hardAlpha" operator="out"/>
<feColorMatrix type="matrix" values="0 0 0 0 0.273709 0 0 0 0 0.770008 0 0 0 0 1 0 0 0 1 0"/>
<feBlend mode="normal" in2="effect1_dropShadow_6027_260" result="effect2_dropShadow_6027_260"/>
<feColorMatrix in="SourceAlpha" type="matrix" values="0 0 0 0 0 0 0 0 0 0 0 0 0 0 0 0 0 0 127 0" result="hardAlpha"/>
<feOffset/>
<feGaussianBlur stdDeviation="4"/>
<feComposite in2="hardAlpha" operator="out"/>
<feColorMatrix type="matrix" values="0 0 0 0 0 0 0 0 0 0.912307 0 0 0 0 0.943766 0 0 0 1 0"/>
<feBlend mode="normal" in2="effect2_dropShadow_6027_260" result="effect3_dropShadow_6027_260"/>
<feBlend mode="normal" in="SourceGraphic" in2="effect3_dropShadow_6027_260" result="shape"/>
<feColorMatrix in="SourceAlpha" type="matrix" values="0 0 0 0 0 0 0 0 0 0 0 0 0 0 0 0 0 0 127 0" result="hardAlpha"/>
<feOffset/>
<feGaussianBlur stdDeviation="1"/>
<feComposite in2="hardAlpha" operator="arithmetic" k2="-1" k3="1"/>
<feColorMatrix type="matrix" values="0 0 0 0 0.27451 0 0 0 0 0.768627 0 0 0 0 1 0 0 0 1 0"/>
<feBlend mode="normal" in2="shape" result="effect4_innerShadow_6027_260"/>
</filter>
<filter id="filter4_dddi_6027_260" x="238.875" y="0.164062" width="269.023" height="269.024" filterUnits="userSpaceOnUse" color-interpolation-filters="sRGB">
<feFlood flood-opacity="0" result="BackgroundImageFix"/>
<feColorMatrix in="SourceAlpha" type="matrix" values="0 0 0 0 0 0 0 0 0 0 0 0 0 0 0 0 0 0 127 0" result="hardAlpha"/>
<feOffset/>
<feGaussianBlur stdDeviation="64"/>
<feComposite in2="hardAlpha" operator="out"/>
<feColorMatrix type="matrix" values="0 0 0 0 0.27451 0 0 0 0 0.768627 0 0 0 0 1 0 0 0 1 0"/>
<feBlend mode="normal" in2="BackgroundImageFix" result="effect1_dropShadow_6027_260"/>
<feColorMatrix in="SourceAlpha" type="matrix" values="0 0 0 0 0 0 0 0 0 0 0 0 0 0 0 0 0 0 127 0" result="hardAlpha"/>
<feOffset/>
<feGaussianBlur stdDeviation="16"/>
<feComposite in2="hardAlpha" operator="out"/>
<feColorMatrix type="matrix" values="0 0 0 0 0.273709 0 0 0 0 0.770008 0 0 0 0 1 0 0 0 1 0"/>
<feBlend mode="normal" in2="effect1_dropShadow_6027_260" result="effect2_dropShadow_6027_260"/>
<feColorMatrix in="SourceAlpha" type="matrix" values="0 0 0 0 0 0 0 0 0 0 0 0 0 0 0 0 0 0 127 0" result="hardAlpha"/>
<feOffset/>
<feGaussianBlur stdDeviation="4"/>
<feComposite in2="hardAlpha" operator="out"/>
<feColorMatrix type="matrix" values="0 0 0 0 0 0 0 0 0 0.912307 0 0 0 0 0.943766 0 0 0 1 0"/>
<feBlend mode="normal" in2="effect2_dropShadow_6027_260" result="effect3_dropShadow_6027_260"/>
<feBlend mode="normal" in="SourceGraphic" in2="effect3_dropShadow_6027_260" result="shape"/>
<feColorMatrix in="SourceAlpha" type="matrix" values="0 0 0 0 0 0 0 0 0 0 0 0 0 0 0 0 0 0 127 0" result="hardAlpha"/>
<feOffset/>
<feGaussianBlur stdDeviation="1"/>
<feComposite in2="hardAlpha" operator="arithmetic" k2="-1" k3="1"/>
<feColorMatrix type="matrix" values="0 0 0 0 0.27451 0 0 0 0 0.768627 0 0 0 0 1 0 0 0 1 0"/>
<feBlend mode="normal" in2="shape" result="effect4_innerShadow_6027_260"/>
</filter>
<filter id="filter5_dddi_6027_260" x="243.273" y="3.4375" width="260.822" height="262.477" filterUnits="userSpaceOnUse" color-interpolation-filters="sRGB">
<feFlood flood-opacity="0" result="BackgroundImageFix"/>
<feColorMatrix in="SourceAlpha" type="matrix" values="0 0 0 0 0 0 0 0 0 0 0 0 0 0 0 0 0 0 127 0" result="hardAlpha"/>
<feOffset/>
<feGaussianBlur stdDeviation="64"/>
<feComposite in2="hardAlpha" operator="out"/>
<feColorMatrix type="matrix" values="0 0 0 0 0.27451 0 0 0 0 0.768627 0 0 0 0 1 0 0 0 1 0"/>
<feBlend mode="normal" in2="BackgroundImageFix" result="effect1_dropShadow_6027_260"/>
<feColorMatrix in="SourceAlpha" type="matrix" values="0 0 0 0 0 0 0 0 0 0 0 0 0 0 0 0 0 0 127 0" result="hardAlpha"/>
<feOffset/>
<feGaussianBlur stdDeviation="16"/>
<feComposite in2="hardAlpha" operator="out"/>
<feColorMatrix type="matrix" values="0 0 0 0 0.273709 0 0 0 0 0.770008 0 0 0 0 1 0 0 0 1 0"/>
<feBlend mode="normal" in2="effect1_dropShadow_6027_260" result="effect2_dropShadow_6027_260"/>
<feColorMatrix in="SourceAlpha" type="matrix" values="0 0 0 0 0 0 0 0 0 0 0 0 0 0 0 0 0 0 127 0" result="hardAlpha"/>
<feOffset/>
<feGaussianBlur stdDeviation="4"/>
<feComposite in2="hardAlpha" operator="out"/>
<feColorMatrix type="matrix" values="0 0 0 0 0 0 0 0 0 0.912307 0 0 0 0 0.943766 0 0 0 1 0"/>
<feBlend mode="normal" in2="effect2_dropShadow_6027_260" result="effect3_dropShadow_6027_260"/>
<feBlend mode="normal" in="SourceGraphic" in2="effect3_dropShadow_6027_260" result="shape"/>
<feColorMatrix in="SourceAlpha" type="matrix" values="0 0 0 0 0 0 0 0 0 0 0 0 0 0 0 0 0 0 127 0" result="hardAlpha"/>
<feOffset/>
<feGaussianBlur stdDeviation="1"/>
<feComposite in2="hardAlpha" operator="arithmetic" k2="-1" k3="1"/>
<feColorMatrix type="matrix" values="0 0 0 0 0.27451 0 0 0 0 0.768627 0 0 0 0 1 0 0 0 1 0"/>
<feBlend mode="normal" in2="shape" result="effect4_innerShadow_6027_260"/>
</filter>
</defs>
</svg>
