<svg width="222" height="30" viewBox="0 0 222 30" fill="none" xmlns="http://www.w3.org/2000/svg">
<path d="M7.68102 0.921875H29.3614L27.8024 6.61352H12.3941L10.7627 12.6677H24.3582L22.8355 18.3593H9.27623L6.30333 29.3801H0.03125L7.68102 0.921875Z" fill="white"/>
<path d="M33.3852 9.47656H37.7358L33.494 25.3914H43.4278L42.3402 29.3792H28.0195L33.3852 9.47656Z" fill="white"/>
<path d="M76.7485 9.47656H81.1354L75.7696 29.3792H71.3828L76.7485 9.47656Z" fill="white"/>
<path d="M48.5781 22.9988C48.5781 22.0199 48.7594 20.9324 49.0494 19.8085L51.8048 9.47656H56.1916L53.3275 20.2073C53.11 20.8961 53.0012 21.5487 53.0012 22.3825C53.0012 24.3401 54.2339 25.6814 56.4817 25.6814C57.7868 25.6814 58.8745 25.2464 59.7083 24.4126C60.5785 23.5425 61.2311 22.3462 61.6661 20.7149L64.6753 9.47656H69.0621L65.8717 21.3311C65.1828 23.9051 64.2039 25.8627 62.79 27.2403C61.1585 28.8717 58.9833 29.7055 56.0104 29.7055C51.406 29.7055 48.5781 27.2403 48.5781 22.9988Z" fill="white"/>
<path d="M91.504 25.4277C94.1506 25.4277 96.5797 24.5939 98.1749 22.9988C99.4438 21.7299 100.169 19.9535 100.169 18.0322C100.169 16.6546 99.7339 15.6032 99.0088 14.8782C98.1386 14.0081 96.6885 13.4281 94.4407 13.4281H92.3016L89.0749 25.4277H91.504ZM88.9662 9.47656H94.7669C98.6462 9.47656 101.039 10.5279 102.562 12.0505C104.048 13.5368 104.737 15.4582 104.737 17.8871C104.737 20.8599 103.613 23.6151 101.474 25.754C99.0813 28.1466 95.6371 29.4155 91.0327 29.4155H83.6367L88.9662 9.47656Z" fill="white"/>
<path d="M113.908 9.47656H129.098L128.011 13.4643H117.243L116.083 17.7059H125.582L124.53 21.6937H115.031L112.965 29.3792H108.578L113.908 9.47656Z" fill="white"/>
<path d="M147.958 18.2166C147.958 15.2439 146.181 13.1412 142.882 13.1412C138.713 13.1412 135.958 17.1652 135.958 20.6092C135.958 23.5819 137.734 25.6846 141.033 25.6846C145.239 25.6846 147.958 21.6968 147.958 18.2166ZM131.426 20.8993C131.426 14.9538 136.248 9.11719 143.426 9.11719C148.937 9.11719 152.526 12.9237 152.526 17.9266C152.526 23.872 147.704 29.7086 140.526 29.7086C135.051 29.7449 131.426 25.9384 131.426 20.8993Z" fill="white"/>
<path d="M166.773 19.156C168.477 19.156 169.927 18.721 170.797 17.8871C171.304 17.3796 171.631 16.6908 171.631 15.857C171.631 15.1682 171.413 14.6969 171.014 14.2619C170.471 13.7181 169.492 13.4281 168.114 13.4281H164.452L162.93 19.156H166.773ZM161.081 9.47656H168.332C171.304 9.47656 173.298 10.1291 174.64 11.4705C175.655 12.4855 176.163 13.8631 176.163 15.4945C176.163 17.4159 175.51 19.0472 174.35 20.2073C173.226 21.3311 171.703 22.1287 169.745 22.6L173.117 29.4155H168.15L165.069 23.035H161.806L160.102 29.4155H155.715L161.081 9.47656Z" fill="white"/>
<path d="M184.166 9.47656H188.698L191.599 17.8871L199.031 9.47656H204.07L198.741 29.3792H194.282L197.762 16.3645L189.967 24.8839H189.858L186.668 16.4733L183.188 29.3792H178.801L184.166 9.47656Z" fill="white"/>
<path d="M215.46 9.48157H216.874L217.817 12.128L220.174 9.48157H221.733L220.029 15.7533H218.687L219.811 11.5117L217.346 14.2669H217.237L216.258 11.5117L215.134 15.7533H213.793L215.46 9.48157ZM210.53 10.7142H208.645L209.007 9.44531H214.192L213.829 10.7142H211.944L210.602 15.717H209.188L210.53 10.7142Z" fill="white"/>
</svg>
