<svg width="95" height="96" viewBox="0 0 95 96" fill="none" xmlns="http://www.w3.org/2000/svg">
<path d="M45.0781 55.5632L52.6775 47.9639L45.0781 40.3646" stroke="white" stroke-width="4.22185" stroke-linecap="round" stroke-linejoin="round"/>
<path d="M14.8072 41.3174C12.779 51.0753 15.0554 61.4479 21.7967 69.5776C33.6059 83.8191 54.767 85.6352 69.0661 73.7783C74.14 69.5709 77.615 64.2568 79.6528 58.383C80.1844 56.6772 79.8541 54.5187 78.5632 52.9619C76.5073 50.4826 73.0269 50.1577 70.5476 52.2135C69.6827 52.9307 68.884 54.0796 68.4691 55.1047C67.3285 58.775 64.9898 62.1738 61.6457 64.9468C59.3394 66.8592 56.5929 68.3582 53.8577 69.1667C49.9905 70.1355 46.1543 70.2028 42.4067 69.321C37.9208 68.3702 33.899 65.8669 30.7435 62.0615C26.2971 56.6994 24.8082 49.8579 26.0796 43.6466C27.1077 38.902 29.5449 34.4484 33.5809 31.1017C39.289 26.3685 46.6578 24.9287 53.3472 26.7767C57.6602 27.8709 61.644 30.2111 64.7517 33.9588C66.425 35.9768 67.5415 38.2621 68.4274 40.7385C68.5891 41.2856 69.0672 41.8621 69.4497 42.3234C71.5055 44.8027 75.0816 45.2429 77.5609 43.187C79.4636 41.6093 80.2371 39.0219 79.3794 36.814C78.1223 33.1859 76.3083 29.8249 73.6309 26.596C66.8897 18.4663 57.0601 14.3569 47.3641 14.5155C39.97 14.5167 32.5028 17.0111 26.2181 22.2225C19.9334 27.4338 16.215 34.2146 14.7017 41.3076L14.8072 41.3174Z" fill="white"/>
</svg>
