<svg width="920" height="180" viewBox="0 0 920 180" fill="none" xmlns="http://www.w3.org/2000/svg">
<g opacity="0.2">
<mask id="path-1-outside-1_4108_1700" maskUnits="userSpaceOnUse" x="0" y="0.0742188" width="920" height="180" fill="black">
<rect fill="white" y="0.0742188" width="920" height="180"/>
<path d="M99.9568 1.61599C172.239 1.61599 198.457 25.1384 198.457 62.8724C198.457 109.917 142.836 127.559 42.8658 161.128H196.987V176.074H2.43661V161.863C127.89 118.738 180.57 104.037 180.57 64.5876C180.57 35.6745 160.968 17.5426 99.9568 17.5426C39.1905 17.5426 18.8533 40.33 18.8533 69.9781H0.96646C0.96646 30.039 27.6743 1.61599 99.9568 1.61599ZM259.164 63.8525H340.758C412.55 63.8525 427.987 87.1299 427.987 120.698C427.987 154.022 409.365 179.015 329.486 179.015C254.999 179.015 230.986 152.062 230.986 114.083H248.873C248.873 144.221 269.455 164.803 329.486 164.803C395.398 164.803 410.1 145.691 410.1 120.698C410.1 95.7058 399.809 76.5938 339.042 76.5938H239.562L249.363 4.55628H415.735V19.5028H265.78L259.164 63.8525ZM566.886 1.61599C643.824 1.61599 672.247 39.5949 672.247 90.3153C672.247 140.791 643.824 179.015 566.886 179.015C489.948 179.015 461.525 140.791 461.525 90.3153C461.525 39.5949 489.948 1.61599 566.886 1.61599ZM566.886 162.108C631.082 162.108 654.115 131.48 654.115 90.3153C654.115 49.151 631.082 18.5228 566.886 18.5228C502.689 18.5228 479.411 49.151 479.411 90.3153C479.411 131.48 502.689 162.108 566.886 162.108ZM813.404 1.61599C890.342 1.61599 918.765 39.5949 918.765 90.3153C918.765 140.791 890.342 179.015 813.404 179.015C736.466 179.015 708.043 140.791 708.043 90.3153C708.043 39.5949 736.466 1.61599 813.404 1.61599ZM813.404 162.108C877.601 162.108 900.633 131.48 900.633 90.3153C900.633 49.151 877.601 18.5228 813.404 18.5228C749.208 18.5228 725.93 49.151 725.93 90.3153C725.93 131.48 749.208 162.108 813.404 162.108Z"/>
</mask>
<path d="M42.8658 161.128L42.6541 160.497L42.8658 161.793V161.128ZM196.987 161.128H197.652V160.462H196.987V161.128ZM196.987 176.074V176.74H197.652V176.074H196.987ZM2.43661 176.074H1.77132V176.74H2.43661V176.074ZM2.43661 161.863L2.22034 161.234L1.77132 161.388V161.863H2.43661ZM18.8533 69.9781V70.6434H19.5186V69.9781H18.8533ZM0.96646 69.9781H0.301167V70.6434H0.96646V69.9781ZM99.9568 1.61599V2.28128C136.049 2.28128 160.513 8.1583 175.939 18.6442C191.313 29.0952 197.792 44.1826 197.792 62.8724H198.457H199.122C199.122 43.8282 192.492 28.2874 176.687 17.5437C160.933 6.83489 136.147 0.950691 99.9568 0.950691V1.61599ZM198.457 62.8724H197.792C197.792 74.4874 194.364 84.268 187.677 92.9452C180.979 101.638 170.99 109.249 157.83 116.47C131.494 130.922 92.6688 143.703 42.6541 160.497L42.8658 161.128L43.0776 161.758C93.0333 144.984 132.003 132.16 158.47 117.637C171.712 110.371 181.877 102.653 188.731 93.7574C195.598 84.8463 199.122 74.7799 199.122 62.8724H198.457ZM42.8658 161.128V161.793H196.987V161.128V160.462H42.8658V161.128ZM196.987 161.128H196.322V176.074H196.987H197.652V161.128H196.987ZM196.987 176.074V175.409H2.43661V176.074V176.74H196.987V176.074ZM2.43661 176.074H3.10191V161.863H2.43661H1.77132V176.074H2.43661ZM2.43661 161.863L2.65289 162.492C65.3475 140.941 109.94 126.465 138.839 112.445C153.293 105.433 163.888 98.505 170.871 90.8122C177.876 83.0959 181.236 74.6228 181.236 64.5876H180.57H179.905C179.905 74.2769 176.679 82.4349 169.886 89.9178C163.072 97.4243 152.656 104.263 138.258 111.248C109.453 125.222 64.9788 139.66 2.22034 161.234L2.43661 161.863ZM180.57 64.5876H181.236C181.236 49.9546 176.259 37.9592 163.506 29.665C150.814 21.4111 130.502 16.8774 99.9568 16.8774V17.5426V18.2079C130.423 18.2079 150.417 22.7401 162.78 30.7804C175.081 38.7804 179.905 50.3075 179.905 64.5876H180.57ZM99.9568 17.5426V16.8774C69.5092 16.8774 49.0661 22.583 36.2214 32.108C23.3407 41.6596 18.188 54.9858 18.188 69.9781H18.8533H19.5186C19.5186 55.3223 24.5345 42.4308 37.014 33.1767C49.5294 23.896 69.6381 18.2079 99.9568 18.2079V17.5426ZM18.8533 69.9781V69.3128H0.96646V69.9781V70.6434H18.8533V69.9781ZM0.96646 69.9781H1.63175C1.63175 50.1697 8.24568 33.2939 23.7616 21.347C39.3085 9.37615 63.8854 2.28128 99.9568 2.28128V1.61599V0.950691C63.7456 0.950691 38.8274 8.0673 22.9498 20.2927C7.04113 32.5421 0.301167 49.8474 0.301167 69.9781H0.96646ZM259.164 63.8525L258.506 63.7543L258.392 64.5178H259.164V63.8525ZM230.986 114.083V113.417H230.321V114.083H230.986ZM248.873 114.083H249.538V113.417H248.873V114.083ZM239.562 76.5938L238.903 76.5041L238.8 77.2591H239.562V76.5938ZM249.363 4.55629V3.89099H248.782L248.704 4.46659L249.363 4.55629ZM415.735 4.55629H416.401V3.89099H415.735V4.55629ZM415.735 19.5028V20.1681H416.401V19.5028H415.735ZM265.78 19.5028V18.8375H265.206L265.122 19.4047L265.78 19.5028ZM259.164 63.8525V64.5178H340.758V63.8525V63.1872H259.164V63.8525ZM340.758 63.8525V64.5178C376.614 64.5178 398.232 70.3372 410.885 80.2117C423.488 90.0477 427.321 104.013 427.321 120.698H427.987H428.652C428.652 103.815 424.767 89.3576 411.704 79.1628C398.69 69.0065 376.694 63.1872 340.758 63.1872V63.8525ZM427.987 120.698H427.321C427.321 137.223 422.715 151.561 408.305 161.811C393.837 172.102 369.385 178.349 329.486 178.349V179.015V179.68C369.466 179.68 394.264 173.431 409.077 162.895C423.948 152.317 428.652 137.497 428.652 120.698H427.987ZM329.486 179.015V178.349C292.301 178.349 267.848 171.618 252.703 160.259C237.597 148.929 231.651 132.919 231.651 114.083H230.986H230.321C230.321 133.225 236.382 149.681 251.904 161.323C267.387 172.935 292.184 179.68 329.486 179.68V179.015ZM230.986 114.083V114.748H248.873V114.083V113.417H230.986V114.083ZM248.873 114.083H248.208C248.208 129.323 253.425 142.227 266.285 151.289C279.099 160.318 299.417 165.468 329.486 165.468V164.803V164.138C299.525 164.138 279.536 158.997 267.051 150.201C254.613 141.437 249.538 128.98 249.538 114.083H248.873ZM329.486 164.803V165.468C362.477 165.468 382.795 160.691 394.878 152.677C407.03 144.617 410.765 133.347 410.765 120.698H410.1H409.435C409.435 133.043 405.819 143.824 394.142 151.569C382.396 159.359 362.408 164.138 329.486 164.138V164.803ZM410.1 120.698H410.765C410.765 108.116 408.173 96.8352 397.767 88.7486C387.416 80.7048 369.46 75.9285 339.042 75.9285V76.5938V77.2591C369.391 77.2591 386.964 82.0388 396.95 89.7992C406.881 97.5168 409.435 108.288 409.435 120.698H410.1ZM339.042 76.5938V75.9285H239.562V76.5938V77.2591H339.042V76.5938ZM239.562 76.5938L240.221 76.6835L250.022 4.64597L249.363 4.55629L248.704 4.46659L238.903 76.5041L239.562 76.5938ZM249.363 4.55629V5.22158H415.735V4.55629V3.89099H249.363V4.55629ZM415.735 4.55629H415.07V19.5028H415.735H416.401V4.55629H415.735ZM415.735 19.5028V18.8375H265.78V19.5028V20.1681H415.735V19.5028ZM265.78 19.5028L265.122 19.4047L258.506 63.7543L259.164 63.8525L259.822 63.9506L266.438 19.601L265.78 19.5028ZM566.886 1.61599V2.28128C605.254 2.28128 631.403 11.751 647.961 27.4286C664.512 43.1011 671.581 65.0766 671.581 90.3152H672.247H672.912C672.912 64.8336 665.77 42.4595 648.875 26.4624C631.986 10.4705 605.456 0.950691 566.886 0.950691V1.61599ZM672.247 90.3152H671.581C671.581 115.431 664.512 137.407 647.96 153.11C631.403 168.819 605.252 178.349 566.886 178.349V179.015V179.68C605.457 179.68 631.987 170.098 648.876 154.076C665.769 138.049 672.912 115.675 672.912 90.3152H672.247ZM566.886 179.015V178.349C528.519 178.349 502.369 168.819 485.811 153.11C469.259 137.407 462.19 115.431 462.19 90.3152H461.525H460.859C460.859 115.675 468.002 138.049 484.895 154.076C501.784 170.098 528.314 179.68 566.886 179.68V179.015ZM461.525 90.3152H462.19C462.19 65.0766 469.259 43.1011 485.811 27.4286C502.368 11.751 528.518 2.28128 566.886 2.28128V1.61599V0.950691C528.316 0.950691 501.785 10.4705 484.896 26.4624C468.002 42.4595 460.859 64.8336 460.859 90.3152H461.525ZM566.886 162.108V162.773C599.08 162.773 621.077 155.094 635.027 142.136C648.985 129.17 654.78 111.019 654.78 90.3152H654.115H653.449C653.449 110.776 647.728 128.521 634.121 141.161C620.506 153.808 598.888 161.442 566.886 161.442V162.108ZM654.115 90.3152H654.78C654.78 69.6113 648.985 51.4608 635.027 38.4949C621.077 25.5368 599.08 17.8575 566.886 17.8575V18.5228V19.188C598.888 19.188 620.506 26.8228 634.121 39.4698C647.728 52.1092 653.449 69.8549 653.449 90.3152H654.115ZM566.886 18.5228V17.8575C534.692 17.8575 512.634 25.5368 498.623 38.4939C484.603 51.459 478.746 69.6094 478.746 90.3152H479.411H480.077C480.077 69.8568 485.858 52.1109 499.526 39.4708C513.203 26.8228 534.883 19.188 566.886 19.188V18.5228ZM479.411 90.3152H478.746C478.746 111.021 484.603 129.171 498.623 142.137C512.634 155.094 534.692 162.773 566.886 162.773V162.108V161.442C534.883 161.442 513.203 153.808 499.526 141.16C485.858 128.52 480.077 110.774 480.077 90.3152H479.411ZM813.404 1.61599V2.28128C851.772 2.28128 877.922 11.751 894.479 27.4286C911.031 43.1011 918.1 65.0766 918.1 90.3152H918.765H919.431C919.431 64.8336 912.288 42.4595 895.394 26.4624C878.505 10.4705 851.974 0.950691 813.404 0.950691V1.61599ZM918.765 90.3152H918.1C918.1 115.431 911.031 137.407 894.479 153.11C877.921 168.819 851.771 178.349 813.404 178.349V179.015V179.68C851.976 179.68 878.506 170.098 895.395 154.076C912.288 138.049 919.431 115.675 919.431 90.3152H918.765ZM813.404 179.015V178.349C775.038 178.349 748.887 168.819 732.33 153.11C715.778 137.407 708.709 115.431 708.709 90.3152H708.043H707.378C707.378 115.675 714.521 138.049 731.414 154.076C748.303 170.098 774.833 179.68 813.404 179.68V179.015ZM708.043 90.3152H708.709C708.709 65.0766 715.778 43.1011 732.33 27.4286C748.887 11.751 775.036 2.28128 813.404 2.28128V1.61599V0.950691C774.834 0.950691 748.304 10.4705 731.415 26.4624C714.52 42.4595 707.378 64.8336 707.378 90.3152H708.043ZM813.404 162.108V162.773C845.598 162.773 867.595 155.094 881.545 142.136C895.504 129.17 901.299 111.019 901.299 90.3152H900.633H899.968C899.968 110.776 894.247 128.521 880.64 141.161C867.025 153.808 845.407 161.442 813.404 161.442V162.108ZM900.633 90.3152H901.299C901.299 69.6113 895.504 51.4608 881.545 38.4949C867.595 25.5368 845.598 17.8575 813.404 17.8575V18.5228V19.188C845.407 19.188 867.025 26.8228 880.64 39.4698C894.247 52.1092 899.968 69.8549 899.968 90.3152H900.633ZM813.404 18.5228V17.8575C781.21 17.8575 759.153 25.5368 745.142 38.4939C731.122 51.459 725.265 69.6094 725.265 90.3152H725.93H726.596C726.596 69.8568 732.377 52.1109 746.045 39.4708C759.722 26.8228 781.402 19.188 813.404 19.188V18.5228ZM725.93 90.3152H725.265C725.265 111.021 731.122 129.171 745.142 142.137C759.153 155.094 781.21 162.773 813.404 162.773V162.108V161.442C781.402 161.442 759.722 153.808 746.045 141.16C732.377 128.52 726.596 110.774 726.596 90.3152H725.93Z" fill="white" mask="url(#path-1-outside-1_4108_1700)"/>
</g>
</svg>
