<svg width="120" height="46" viewBox="0 0 120 46" fill="none" xmlns="http://www.w3.org/2000/svg">
<path d="M31.6269 32.6141H29.0123C28.9607 32.617 28.9091 32.6093 28.8606 32.5915C28.812 32.5738 28.7677 32.5463 28.7302 32.5108C28.6927 32.4753 28.6628 32.4326 28.6424 32.3852C28.622 32.3378 28.6116 32.2867 28.6117 32.2351V17.665C28.6116 17.6134 28.622 17.5623 28.6424 17.5149C28.6628 17.4675 28.6927 17.4247 28.7302 17.3892C28.7677 17.3538 28.812 17.3263 28.8606 17.3085C28.9091 17.2908 28.9607 17.2831 29.0123 17.286H31.6269C31.7275 17.286 31.8241 17.3259 31.8952 17.397C31.9664 17.468 32.0064 17.5644 32.0064 17.665V32.2351C32.0064 32.3356 31.9664 32.432 31.8952 32.5031C31.8241 32.5742 31.7275 32.6141 31.6269 32.6141Z" fill="white"/>
<path d="M41.4314 17.2854H38.9434C38.8259 17.2854 38.7133 17.332 38.6303 17.4149C38.5472 17.4978 38.5006 17.6103 38.5006 17.7275V23.3071H33.7353C33.6771 23.3071 33.6196 23.3186 33.5658 23.3408C33.5121 23.363 33.4633 23.3956 33.4222 23.4367C33.3811 23.4777 33.3485 23.5265 33.3262 23.5801C33.304 23.6337 33.2925 23.6912 33.2925 23.7493V26.0022C33.2896 26.062 33.299 26.1218 33.32 26.1779C33.3409 26.234 33.3731 26.2852 33.4145 26.3286C33.4559 26.3719 33.5057 26.4063 33.5608 26.4299C33.616 26.4534 33.6753 26.4655 33.7353 26.4654H38.606V32.1714C38.606 32.2886 38.6526 32.4011 38.7357 32.484C38.8187 32.5669 38.9314 32.6135 39.0488 32.6135H41.5369C41.6543 32.6135 41.7669 32.5669 41.85 32.484C41.933 32.4011 41.9796 32.2886 41.9796 32.1714V17.7275C41.9796 17.6695 41.9682 17.612 41.9459 17.5583C41.9237 17.5047 41.8911 17.4559 41.85 17.4149C41.8088 17.3738 41.76 17.3413 41.7063 17.319C41.6526 17.2968 41.595 17.2854 41.5369 17.2854" fill="white"/>
<path d="M87.0634 23.3071H81.033V17.7275C81.033 17.6695 81.0215 17.612 80.9993 17.5583C80.977 17.5047 80.9444 17.4559 80.9033 17.4149C80.8622 17.3738 80.8134 17.3413 80.7597 17.319C80.7059 17.2968 80.6484 17.2854 80.5902 17.2854H78.0178C77.9597 17.2854 77.9021 17.2968 77.8484 17.319C77.7946 17.3413 77.7458 17.3738 77.7047 17.4149C77.6636 17.4559 77.631 17.5047 77.6087 17.5583C77.5865 17.612 77.575 17.6695 77.575 17.7275V32.1714C77.575 32.2886 77.6217 32.4011 77.7047 32.484C77.7877 32.5669 77.9004 32.6135 78.0178 32.6135H80.5059C80.6233 32.6135 80.7359 32.5669 80.819 32.484C80.902 32.4011 80.9487 32.2886 80.9487 32.1714V26.4654H86.9791C87.1021 26.4654 87.2201 26.4166 87.3071 26.3297C87.3941 26.2429 87.4429 26.1251 87.4429 26.0022V23.7493C87.4375 23.6301 87.3862 23.5177 87.2998 23.4353C87.2134 23.3529 87.0985 23.307 86.9791 23.3071" fill="white"/>
<path d="M88.3264 20.4226H83.034C82.9333 20.4226 82.8367 20.3827 82.7656 20.3116C82.6944 20.2405 82.6544 20.1441 82.6544 20.0436V17.6644C82.6544 17.5639 82.6944 17.4675 82.7656 17.3964C82.8367 17.3253 82.9333 17.2854 83.034 17.2854H88.3264C88.4291 17.2852 88.5279 17.3245 88.6024 17.395C88.677 17.4655 88.7216 17.562 88.727 17.6644V20.0436C88.7216 20.146 88.677 20.2424 88.6024 20.313C88.5279 20.3835 88.4291 20.4227 88.3264 20.4226Z" fill="white"/>
<path d="M88.3264 32.6167H83.034C82.9333 32.6167 82.8367 32.5768 82.7656 32.5057C82.6944 32.4346 82.6544 32.3382 82.6544 32.2377V29.8585C82.6544 29.758 82.6944 29.6616 82.7656 29.5905C82.8367 29.5194 82.9333 29.4795 83.034 29.4795H88.3264C88.4291 29.4793 88.5279 29.5186 88.6024 29.5891C88.677 29.6596 88.7216 29.7561 88.727 29.8585V32.2377C88.7216 32.3401 88.677 32.4365 88.6024 32.5071C88.5279 32.5776 88.4291 32.6168 88.3264 32.6167Z" fill="white"/>
<path d="M117.884 23.3071H111.854V17.7275C111.854 17.6695 111.842 17.612 111.82 17.5583C111.798 17.5047 111.765 17.4559 111.724 17.4149C111.683 17.3738 111.634 17.3413 111.58 17.319C111.527 17.2968 111.469 17.2854 111.411 17.2854H108.923C108.865 17.2854 108.807 17.2968 108.753 17.319C108.7 17.3413 108.651 17.3738 108.61 17.4149C108.569 17.4559 108.536 17.5047 108.514 17.5583C108.492 17.612 108.48 17.6695 108.48 17.7275V32.1714C108.48 32.2886 108.527 32.4011 108.61 32.484C108.693 32.5669 108.805 32.6135 108.923 32.6135H111.411C111.528 32.6135 111.641 32.5669 111.724 32.484C111.807 32.4011 111.854 32.2886 111.854 32.1714V26.4654H117.884C117.944 26.4655 118.003 26.4534 118.059 26.4299C118.114 26.4063 118.164 26.3719 118.205 26.3286C118.246 26.2852 118.279 26.234 118.299 26.1779C118.32 26.1218 118.33 26.062 118.327 26.0022V23.7493C118.327 23.632 118.28 23.5196 118.197 23.4367C118.114 23.3537 118.002 23.3071 117.884 23.3071Z" fill="white"/>
<path d="M119.15 20.4226H113.858C113.755 20.4227 113.656 20.3835 113.582 20.313C113.507 20.2424 113.463 20.146 113.457 20.0436V17.6644C113.463 17.562 113.507 17.4655 113.582 17.395C113.656 17.3245 113.755 17.2852 113.858 17.2854H119.15C119.251 17.2854 119.347 17.3253 119.419 17.3964C119.49 17.4675 119.53 17.5639 119.53 17.6644V20.0436C119.53 20.1441 119.49 20.2405 119.419 20.3116C119.347 20.3827 119.251 20.4226 119.15 20.4226Z" fill="white"/>
<path d="M119.15 32.6167H113.858C113.755 32.6168 113.656 32.5776 113.582 32.5071C113.507 32.4365 113.463 32.3401 113.457 32.2377V29.8585C113.463 29.7561 113.507 29.6596 113.582 29.5891C113.656 29.5186 113.755 29.4793 113.858 29.4795H119.15C119.251 29.4795 119.347 29.5194 119.419 29.5905C119.49 29.6616 119.53 29.758 119.53 29.8585V32.2377C119.53 32.3382 119.49 32.4346 119.419 32.5057C119.347 32.5768 119.251 32.6167 119.15 32.6167Z" fill="white"/>
<path d="M20.8549 17.3269H19.6108C19.5527 17.3269 19.4951 17.3383 19.4414 17.3606C19.3877 17.3828 19.3389 17.4154 19.2977 17.4564C19.2566 17.4975 19.224 17.5462 19.2018 17.5999C19.1795 17.6535 19.1681 17.711 19.1681 17.7691V20.043C19.1681 20.1603 19.2147 20.2728 19.2977 20.3557C19.3808 20.4386 19.4934 20.4852 19.6108 20.4852H20.8549C21.0293 20.4852 21.2021 20.5195 21.3632 20.5862C21.5244 20.6528 21.6708 20.7505 21.7942 20.8737C21.9175 20.9969 22.0154 21.1431 22.0821 21.304C22.1489 21.465 22.1833 21.6375 22.1833 21.8117V21.9801C22.1833 22.1543 22.1489 22.3268 22.0821 22.4877C22.0154 22.6487 21.9175 22.7949 21.7942 22.9181C21.6708 23.0412 21.5244 23.1389 21.3632 23.2056C21.2021 23.2723 21.0293 23.3066 20.8549 23.3066H17.5867V17.7691C17.5867 17.6518 17.54 17.5393 17.457 17.4564C17.3739 17.3735 17.2613 17.3269 17.1439 17.3269H14.7612C14.6438 17.3269 14.5312 17.3735 14.4481 17.4564C14.3651 17.5393 14.3184 17.6518 14.3184 17.7691V32.2129C14.3184 32.3302 14.3651 32.4426 14.4481 32.5256C14.5312 32.6085 14.6438 32.6551 14.7612 32.6551H17.1439C17.202 32.6551 17.2596 32.6436 17.3133 32.6214C17.367 32.5992 17.4159 32.5666 17.457 32.5256C17.4981 32.4845 17.5307 32.4358 17.553 32.3821C17.5752 32.3285 17.5867 32.271 17.5867 32.2129V26.4859H20.8549C22.0406 26.4693 23.1721 25.9873 24.0047 25.1441C24.8373 24.3008 25.304 23.1642 25.3039 21.9801V21.8117C25.2985 20.6312 24.8293 19.4999 23.9973 18.6613C23.1653 17.8226 22.037 17.3434 20.8549 17.3269Z" fill="white"/>
<path d="M69.8989 17.2854H63.5733C63.4558 17.2854 63.3432 17.332 63.2602 17.4149C63.1771 17.4978 63.1305 17.6103 63.1305 17.7275V32.1714C63.1305 32.2886 63.1771 32.4011 63.2602 32.484C63.3432 32.5669 63.4558 32.6135 63.5733 32.6135H66.0613C66.1788 32.6135 66.2914 32.5669 66.3744 32.484C66.4575 32.4011 66.5041 32.2886 66.5041 32.1714V20.4647H69.9832C70.3355 20.4647 70.6734 20.6045 70.9225 20.8532C71.1716 21.102 71.3116 21.4394 71.3116 21.7912V21.9596C71.3116 22.3114 71.1716 22.6488 70.9225 22.8976C70.6734 23.1463 70.3355 23.2861 69.9832 23.2861H68.7603C68.7004 23.2832 68.6405 23.2926 68.5843 23.3135C68.5281 23.3344 68.4768 23.3666 68.4334 23.4079C68.3901 23.4493 68.3555 23.499 68.332 23.554C68.3084 23.6091 68.2963 23.6684 68.2964 23.7283V26.0022C68.2963 26.0621 68.3084 26.1214 68.332 26.1764C68.3555 26.2315 68.3901 26.2812 68.4334 26.3225C68.4768 26.3639 68.5281 26.396 68.5843 26.4169C68.6405 26.4379 68.7004 26.4472 68.7603 26.4444H69.9832C71.1763 26.4444 72.3208 25.9725 73.1664 25.1321C74.012 24.2916 74.4899 23.151 74.4955 21.9596V21.7912C74.4955 20.5962 74.0201 19.4501 73.1739 18.6051C72.3276 17.7601 71.1799 17.2854 69.9832 17.2854" fill="white"/>
<path d="M72.7438 27.3731L74.4728 32.0474C74.5009 32.1155 74.5116 32.1896 74.5037 32.2629C74.4959 32.3362 74.4699 32.4063 74.4279 32.467C74.386 32.5277 74.3296 32.577 74.2638 32.6103C74.198 32.6437 74.1248 32.66 74.0511 32.658H71.4154C71.3224 32.6622 71.2306 32.6356 71.1543 32.5823C71.078 32.529 71.0215 32.4519 70.9937 32.3632L69.4334 28.1522C69.4108 28.0901 69.4018 28.0239 69.407 27.9581C69.4121 27.8922 69.4313 27.8282 69.4633 27.7704C69.4952 27.7126 69.5392 27.6623 69.5922 27.6228C69.6452 27.5833 69.7061 27.5556 69.7707 27.5416L72.2166 27.0573C72.3227 27.0341 72.4335 27.0488 72.5298 27.0988C72.6262 27.1489 72.7019 27.231 72.7438 27.331" fill="white"/>
<path d="M105.218 17.7275V26.1496L101.992 23.265C101.907 23.1894 101.854 23.0838 101.845 22.9703V17.7275C101.85 17.6084 101.901 17.4959 101.988 17.4135C102.074 17.3312 102.189 17.2853 102.308 17.2854H104.775C104.834 17.2854 104.891 17.2968 104.945 17.319C104.999 17.3413 105.047 17.3738 105.089 17.4149C105.13 17.4559 105.162 17.5047 105.185 17.5583C105.207 17.612 105.218 17.6695 105.218 17.7275Z" fill="white"/>
<path d="M105.089 28.3604L92.7751 17.4117C92.681 17.3313 92.5616 17.2866 92.4378 17.2854C92.3091 17.2854 92.1858 17.3364 92.0948 17.4272C92.0039 17.518 91.9528 17.6412 91.9528 17.7696V32.1714C91.9528 32.2294 91.9642 32.2869 91.9865 32.3406C92.0088 32.3942 92.0414 32.443 92.0825 32.484C92.1236 32.5251 92.1724 32.5576 92.2261 32.5799C92.2798 32.6021 92.3374 32.6135 92.3956 32.6135H94.8836C95.0011 32.6135 95.1137 32.5669 95.1967 32.484C95.2798 32.4011 95.3264 32.2886 95.3264 32.1714V24.4441L104.393 32.4872C104.479 32.5678 104.592 32.613 104.709 32.6135C104.838 32.6135 104.961 32.5625 105.052 32.4717C105.143 32.3809 105.194 32.2577 105.194 32.1293V28.6552C105.196 28.5998 105.186 28.5447 105.164 28.4937C105.142 28.4428 105.109 28.3973 105.068 28.3604" fill="white"/>
<path d="M58.8246 29.9431C57.8713 31.1487 56.593 32.0574 55.1401 32.5622C53.6872 33.0671 52.1202 33.147 50.6233 32.7926C49.1265 32.4382 47.7621 31.6643 46.6908 30.5619C45.6195 29.4595 44.8858 28.0745 44.576 26.5698C44.2663 25.0651 44.3933 23.5034 44.9422 22.0684C45.4912 20.6334 46.4392 19.3848 47.6746 18.4695C48.9101 17.5543 50.3817 17.0104 51.9162 16.902C53.4507 16.7936 54.9843 17.125 56.3365 17.8574C56.3915 17.8913 56.4389 17.9363 56.4755 17.9895C56.512 18.0427 56.5371 18.1029 56.549 18.1664C56.5609 18.2298 56.5594 18.295 56.5446 18.3578C56.5298 18.4207 56.502 18.4797 56.463 18.5312L54.9238 20.4893C54.8589 20.5674 54.7701 20.6221 54.6711 20.6449C54.572 20.6678 54.4682 20.6575 54.3756 20.6156C53.3354 20.1691 52.1692 20.1105 51.0894 20.4506C50.0097 20.7907 49.0882 21.5068 48.4928 22.4685C47.9 23.4015 47.6573 24.514 47.8078 25.6086C47.9584 26.7033 48.4924 27.7093 49.3151 28.4482C50.1845 29.2377 51.3173 29.6752 52.4925 29.6754C53.6676 29.6755 54.8006 29.2382 55.6701 28.4488C56.5396 27.6595 57.0832 26.5748 57.1948 25.4067C57.3063 24.2385 56.9777 23.0708 56.2733 22.1316C56.2117 22.0536 56.1782 21.9572 56.1782 21.8579C56.1782 21.7586 56.2117 21.6622 56.2733 21.5842L57.8125 19.626C57.8539 19.5735 57.9068 19.531 57.967 19.5018C58.0273 19.4726 58.0934 19.4574 58.1604 19.4574C58.2274 19.4574 58.2935 19.4726 58.3538 19.5018C58.414 19.531 58.4669 19.5735 58.5083 19.626C59.7755 21.0384 60.5022 22.8525 60.5601 24.748C60.6179 26.6434 60.0033 28.4983 58.8246 29.9852" fill="white"/>
<path d="M16.3833 45.7993C16.6061 45.8062 16.826 45.7477 17.0158 45.6309L21.5703 43.0411C21.766 42.9294 21.9093 42.7447 21.9686 42.5275C22.0279 42.3103 21.9984 42.0785 21.8865 41.8831C21.7747 41.6876 21.5897 41.5446 21.3722 41.4853C21.1547 41.4261 20.9226 41.4556 20.7269 41.5673L16.3833 44.0728L9.02451 39.8618V31.8819C9.03051 31.7319 8.99415 31.5833 8.91958 31.453C8.84501 31.3227 8.73524 31.2159 8.6028 31.145L1.68682 27.1655V18.7435L8.62389 14.743C8.74914 14.6639 8.85306 14.5554 8.92658 14.4269C9.0001 14.2985 9.04096 14.154 9.0456 14.0061V6.04723L16.3833 1.8362L23.2993 5.81562C23.4281 5.88754 23.5733 5.9253 23.721 5.9253C23.8686 5.9253 24.0138 5.88754 24.1427 5.81562L31.0587 1.81514L38.4174 6.02617V11.0373C38.4495 11.2404 38.5531 11.4255 38.7097 11.5591C38.8662 11.6927 39.0654 11.7662 39.2714 11.7662C39.4773 11.7662 39.6765 11.6927 39.8331 11.5591C39.9896 11.4255 40.0933 11.2404 40.1253 11.0373V5.56296C40.1267 5.41384 40.0883 5.26704 40.0142 5.13757C39.9402 5.00809 39.833 4.90058 39.7036 4.82603L31.4804 0.109675C31.3515 0.0377579 31.2063 0 31.0587 0C30.911 0 30.7658 0.0377579 30.6369 0.109675L23.721 4.21543L16.8682 0.109675C16.7394 0.0377579 16.5942 0 16.4465 0C16.2989 0 16.1537 0.0377579 16.0248 0.109675L7.78048 4.82603C7.64804 4.897 7.53827 5.00374 7.4637 5.13405C7.38913 5.26436 7.35277 5.41299 7.35877 5.56296V13.5218L0.421706 17.5012C0.295166 17.5789 0.190221 17.6871 0.116528 17.8159C0.042836 17.9446 0.00276396 18.0899 0 18.2382V27.6498C0.00276396 27.7981 0.042836 27.9433 0.116528 28.0721C0.190221 28.2009 0.295166 28.3091 0.421706 28.3867L7.33769 32.3662V40.325C7.34045 40.4733 7.38052 40.6185 7.45421 40.7473C7.52791 40.8761 7.63285 40.9843 7.75939 41.0619L15.7296 45.6309C15.9274 45.7472 16.1539 45.8055 16.3833 45.7993Z" fill="white"/>
</svg>
