<svg width="95" height="96" viewBox="0 0 95 96" fill="none" xmlns="http://www.w3.org/2000/svg">
<path d="M49.8848 55.4812L42.2854 47.8819L49.8848 40.2825" stroke="white" stroke-width="4.22185" stroke-linecap="round" stroke-linejoin="round"/>
<path d="M14.5474 41.2432C12.5193 51.0011 14.7956 61.3737 21.5369 69.5034C33.3461 83.7449 54.5073 85.561 68.8064 73.704C73.8802 69.4967 77.3552 64.1826 79.3931 58.3087C79.9247 56.603 79.5943 54.4444 78.3034 52.8877C76.2476 50.4084 72.7671 50.0834 70.2878 52.1393C69.423 52.8565 68.6242 54.0054 68.2093 55.0305C67.0687 58.7008 64.7301 62.0996 61.3859 64.8726C59.0796 66.785 56.3331 68.284 53.598 69.0925C49.7308 70.0613 45.8945 70.1286 42.1469 69.2468C37.661 68.296 33.6392 65.7927 30.4837 61.9873C26.0374 56.6252 24.5484 49.7837 25.8198 43.5724C26.848 38.8277 29.2851 34.3742 33.3211 31.0275C39.0292 26.2943 46.398 24.8545 53.0875 26.7025C57.4004 27.7967 61.3842 30.1369 64.4919 33.8846C66.1653 35.9026 67.2818 38.1879 68.1676 40.6643C68.3293 41.2113 68.8074 41.7879 69.1899 42.2492C71.2458 44.7284 74.8218 45.1687 77.3011 43.1128C79.2038 41.5351 79.9774 38.9477 79.1196 36.7398C77.8626 33.1117 76.0486 29.7506 73.3712 26.5218C66.6299 18.3921 56.8004 14.2827 47.1043 14.4413C39.7103 14.4425 32.243 16.9369 25.9584 22.1482C19.6737 27.3596 15.9553 34.1403 14.4419 41.2334L14.5474 41.2432Z" fill="white"/>
</svg>
