<svg width="325" height="326" viewBox="0 0 325 326" fill="none" xmlns="http://www.w3.org/2000/svg">
<g filter="url(#filter0_dddi_4108_1443)">
<path d="M162.398 128.977C181.308 128.977 196.636 144.305 196.636 163.214C196.636 182.124 181.308 197.452 162.398 197.452C143.488 197.452 128.16 182.124 128.16 163.214C128.16 144.305 143.488 128.977 162.398 128.977ZM174.209 177.17C174.838 175.238 177.789 155.981 178.153 152.187C178.264 151.038 177.9 150.274 177.189 149.933C176.328 149.519 175.054 149.726 173.576 150.259C171.549 150.99 145.629 161.995 144.131 162.632C142.711 163.235 141.369 163.893 141.369 164.846C141.369 165.516 141.766 165.892 142.862 166.284C144.002 166.69 146.873 167.561 148.569 168.029C150.202 168.48 152.061 168.088 153.103 167.441C154.208 166.754 166.955 158.225 167.87 157.477C168.784 156.73 169.514 157.687 168.766 158.436C168.019 159.183 159.269 167.676 158.115 168.852C156.715 170.279 157.709 171.759 158.648 172.352C159.722 173.027 167.44 178.205 168.603 179.035C169.765 179.866 170.944 180.243 172.023 180.243C173.103 180.243 173.671 178.821 174.209 177.17Z" fill="white"/>
</g>
<defs>
<filter id="filter0_dddi_4108_1443" x="0.160156" y="0.976562" width="324.477" height="324.476" filterUnits="userSpaceOnUse" color-interpolation-filters="sRGB">
<feFlood flood-opacity="0" result="BackgroundImageFix"/>
<feColorMatrix in="SourceAlpha" type="matrix" values="0 0 0 0 0 0 0 0 0 0 0 0 0 0 0 0 0 0 127 0" result="hardAlpha"/>
<feOffset/>
<feGaussianBlur stdDeviation="64"/>
<feComposite in2="hardAlpha" operator="out"/>
<feColorMatrix type="matrix" values="0 0 0 0 0.27451 0 0 0 0 0.768627 0 0 0 0 1 0 0 0 1 0"/>
<feBlend mode="normal" in2="BackgroundImageFix" result="effect1_dropShadow_4108_1443"/>
<feColorMatrix in="SourceAlpha" type="matrix" values="0 0 0 0 0 0 0 0 0 0 0 0 0 0 0 0 0 0 127 0" result="hardAlpha"/>
<feOffset/>
<feGaussianBlur stdDeviation="16"/>
<feComposite in2="hardAlpha" operator="out"/>
<feColorMatrix type="matrix" values="0 0 0 0 0.273709 0 0 0 0 0.770008 0 0 0 0 1 0 0 0 1 0"/>
<feBlend mode="normal" in2="effect1_dropShadow_4108_1443" result="effect2_dropShadow_4108_1443"/>
<feColorMatrix in="SourceAlpha" type="matrix" values="0 0 0 0 0 0 0 0 0 0 0 0 0 0 0 0 0 0 127 0" result="hardAlpha"/>
<feOffset/>
<feGaussianBlur stdDeviation="4"/>
<feComposite in2="hardAlpha" operator="out"/>
<feColorMatrix type="matrix" values="0 0 0 0 0 0 0 0 0 0.912307 0 0 0 0 0.943766 0 0 0 1 0"/>
<feBlend mode="normal" in2="effect2_dropShadow_4108_1443" result="effect3_dropShadow_4108_1443"/>
<feBlend mode="normal" in="SourceGraphic" in2="effect3_dropShadow_4108_1443" result="shape"/>
<feColorMatrix in="SourceAlpha" type="matrix" values="0 0 0 0 0 0 0 0 0 0 0 0 0 0 0 0 0 0 127 0" result="hardAlpha"/>
<feOffset/>
<feGaussianBlur stdDeviation="1"/>
<feComposite in2="hardAlpha" operator="arithmetic" k2="-1" k3="1"/>
<feColorMatrix type="matrix" values="0 0 0 0 0.27451 0 0 0 0 0.768627 0 0 0 0 1 0 0 0 1 0"/>
<feBlend mode="normal" in2="shape" result="effect4_innerShadow_4108_1443"/>
</filter>
</defs>
</svg>
