<svg width="325" height="326" viewBox="0 0 325 326" fill="none" xmlns="http://www.w3.org/2000/svg">
<g filter="url(#filter0_dddi_4108_1444)">
<path d="M162.449 128.977C143.57 128.977 128.211 144.336 128.211 163.214C128.211 182.093 143.57 197.452 162.449 197.452C181.329 197.452 196.687 182.093 196.687 163.214C196.687 144.336 181.329 128.977 162.449 128.977ZM177.295 169.965C180.625 172.922 181.317 173.977 181.43 174.157C182.81 176.345 179.9 176.612 179.9 176.612H173.767C173.767 176.612 172.274 176.628 170.998 175.783C168.918 174.421 166.741 171.78 165.21 172.238C163.926 172.622 163.937 174.358 163.937 175.842C163.937 176.374 163.48 176.612 162.449 176.612C161.417 176.612 160.989 176.612 160.532 176.612C157.172 176.612 153.526 175.481 149.889 171.68C144.745 166.308 140.233 155.486 140.233 155.486C140.233 155.486 139.966 154.941 140.257 154.609C140.586 154.237 141.48 154.284 141.48 154.284L147.427 154.283C147.427 154.283 147.987 154.389 148.389 154.671C148.721 154.904 148.906 155.347 148.906 155.347C148.906 155.347 149.904 158.646 151.177 160.749C153.663 164.855 154.82 164.959 155.664 164.517C156.896 163.877 156.494 159.512 156.494 159.512C156.494 159.512 156.55 157.638 155.906 156.803C155.411 156.157 154.462 155.813 154.049 155.76C153.714 155.716 154.273 155.13 154.986 154.795C155.939 154.371 157.236 154.262 159.472 154.283C161.212 154.299 161.713 154.403 162.392 154.56C164.445 155.033 163.937 156.282 163.937 160.667C163.937 162.073 163.744 164.048 164.804 164.703C165.261 164.986 166.827 165.331 169.614 160.806C170.937 158.659 171.989 155.099 171.989 155.099C171.989 155.099 172.207 154.707 172.545 154.514C172.89 154.316 172.88 154.32 173.353 154.32C173.826 154.32 178.573 154.283 179.615 154.283C180.656 154.283 181.633 154.271 181.801 154.881C182.042 155.758 181.033 158.762 178.475 162.022C174.273 167.372 173.807 166.872 177.295 169.965Z" fill="white"/>
</g>
<defs>
<filter id="filter0_dddi_4108_1444" x="0.210938" y="0.976562" width="324.477" height="324.476" filterUnits="userSpaceOnUse" color-interpolation-filters="sRGB">
<feFlood flood-opacity="0" result="BackgroundImageFix"/>
<feColorMatrix in="SourceAlpha" type="matrix" values="0 0 0 0 0 0 0 0 0 0 0 0 0 0 0 0 0 0 127 0" result="hardAlpha"/>
<feOffset/>
<feGaussianBlur stdDeviation="64"/>
<feComposite in2="hardAlpha" operator="out"/>
<feColorMatrix type="matrix" values="0 0 0 0 0.27451 0 0 0 0 0.768627 0 0 0 0 1 0 0 0 1 0"/>
<feBlend mode="normal" in2="BackgroundImageFix" result="effect1_dropShadow_4108_1444"/>
<feColorMatrix in="SourceAlpha" type="matrix" values="0 0 0 0 0 0 0 0 0 0 0 0 0 0 0 0 0 0 127 0" result="hardAlpha"/>
<feOffset/>
<feGaussianBlur stdDeviation="16"/>
<feComposite in2="hardAlpha" operator="out"/>
<feColorMatrix type="matrix" values="0 0 0 0 0.273709 0 0 0 0 0.770008 0 0 0 0 1 0 0 0 1 0"/>
<feBlend mode="normal" in2="effect1_dropShadow_4108_1444" result="effect2_dropShadow_4108_1444"/>
<feColorMatrix in="SourceAlpha" type="matrix" values="0 0 0 0 0 0 0 0 0 0 0 0 0 0 0 0 0 0 127 0" result="hardAlpha"/>
<feOffset/>
<feGaussianBlur stdDeviation="4"/>
<feComposite in2="hardAlpha" operator="out"/>
<feColorMatrix type="matrix" values="0 0 0 0 0 0 0 0 0 0.912307 0 0 0 0 0.943766 0 0 0 1 0"/>
<feBlend mode="normal" in2="effect2_dropShadow_4108_1444" result="effect3_dropShadow_4108_1444"/>
<feBlend mode="normal" in="SourceGraphic" in2="effect3_dropShadow_4108_1444" result="shape"/>
<feColorMatrix in="SourceAlpha" type="matrix" values="0 0 0 0 0 0 0 0 0 0 0 0 0 0 0 0 0 0 127 0" result="hardAlpha"/>
<feOffset/>
<feGaussianBlur stdDeviation="1"/>
<feComposite in2="hardAlpha" operator="arithmetic" k2="-1" k3="1"/>
<feColorMatrix type="matrix" values="0 0 0 0 0.27451 0 0 0 0 0.768627 0 0 0 0 1 0 0 0 1 0"/>
<feBlend mode="normal" in2="shape" result="effect4_innerShadow_4108_1444"/>
</filter>
</defs>
</svg>
